<?xml version="1.0" encoding="utf-8"?>
<!-- Generator: Adobe Illustrator 28.3.0, SVG Export Plug-In . SVG Version: 6.00 Build 0)  -->
<svg version="1.1" id="Layer_1" xmlns="http://www.w3.org/2000/svg" xmlns:xlink="http://www.w3.org/1999/xlink" x="0px" y="0px"
	 viewBox="0 0 16 16" style="enable-background:new 0 0 16 16;" xml:space="preserve">
<style type="text/css">
	.st0{fill:#FFFFFF;}
</style>
<path class="st0" d="M6.5,7.2c0,0,1.5-0.2,1.5-3C8,1.4,6.7,0,5.2,0H0v15.7h5.2c0,0,3.2,0.2,3.2-4.6C8.3,11,8.5,7.2,6.5,7.2L6.5,7.2z
	 M4.8,2.8h0.4c0,0,0.7,0,0.7,1.6C5.9,6,5.5,6.3,5,6.3H2.3V2.8L4.8,2.8L4.8,2.8z M5,12.9H2.3V8.7h2.9c0,0,1,0,1,2.2
	C6.2,12.7,5.4,12.9,5,12.9L5,12.9z M12.5,4c-3.8,0-3.8,6-3.8,6s-0.3,6,3.8,6c0,0,3.4,0.3,3.4-4.2h-1.7c0,0,0.1,1.7-1.6,1.7
	c0,0-1.7,0.2-1.7-2.7H16C16,10.8,16.5,4,12.5,4L12.5,4z M10.8,8.7c0,0,0.2-2.4,1.7-2.4c1.5,0,1.5,2.4,1.5,2.4H10.8z M14.5,2.9h-4.1
	V0.9h4.1L14.5,2.9L14.5,2.9z"/>
<path class="st0" d="M8.4,7.9C8.4,7.9,8.3,7.9,8.4,7.9C8.3,8,8.4,8,8.4,7.9C8.4,8,8.4,8,8.4,7.9C8.4,7.9,8.4,7.9,8.4,7.9L8.4,7.9z
	 M8.4,8C8.4,8,8.4,8,8.4,8C8.4,7.9,8.4,7.9,8.4,8C8.4,7.9,8.4,7.9,8.4,8C8.4,8,8.4,8,8.4,8L8.4,8z"/>
<path class="st0" d="M8.4,7.9C8.4,7.9,8.4,7.9,8.4,7.9C8.4,7.9,8.4,7.9,8.4,7.9C8.4,7.9,8.4,7.9,8.4,7.9C8.4,7.9,8.4,7.9,8.4,7.9z"
	/>
</svg>
