<?xml version="1.0" encoding="utf-8"?>
<!-- Generator: Adobe Illustrator 28.3.0, SVG Export Plug-In . SVG Version: 6.00 Build 0)  -->
<svg version="1.1" id="Layer_1" xmlns="http://www.w3.org/2000/svg" xmlns:xlink="http://www.w3.org/1999/xlink" x="0px" y="0px"
	 viewBox="0 0 1200 900" style="enable-background:new 0 0 1200 900;" xml:space="preserve">
<style type="text/css">
	.st0{fill:#FFFBE9;}
	.st1{fill:#545454;}
	.st2{fill:#92A32B;}
	.st3{fill:#BEE41B;}
	.st4{fill:#FDE427;}
	.st5{fill:#16B1B5;}
	.st6{fill:#46F2F2;}
	.st7{fill:#D3B81A;}
	.st8{fill:#AA3C6E;}
	.st9{fill:#FF5593;}
	.st10{opacity:0.6;fill:#16B1B5;}
	.st11{opacity:0.6;}
	.st12{fill:#FFFFFF;}
	.st13{fill:#D7E0E0;}
	.st14{fill:#FF1717;}
	.st15{fill:#579334;}
	.st16{fill:#3D3D3D;}
	.st17{fill:#707070;}
	.st18{fill:#A0A0A0;}
	.st19{opacity:0.7;fill:#212E35;}
	.st20{fill:#CCCCCC;}
	.st21{fill:#302530;}
	.st22{fill:#60485E;}
	.st23{fill:#423241;}
	.st24{fill:#603043;}
	.st25{fill:#00788C;}
	.st26{fill:#757573;}
	.st27{fill:#999995;}
	.st28{fill:#544753;}
	.st29{fill:#CACEA5;}
	.st30{fill:#E0E8BF;}
	.st31{fill:#353535;}
	.st32{fill:#FF5821;}
	.st33{fill:#889F33;}
	.st34{fill:#9C9E8F;}
	.st35{fill:#C9CCBC;}
	.st36{fill:#728425;}
	.st37{fill:#212030;}
	.st38{fill:#FFA471;}
	.st39{fill:#171721;}
	.st40{fill:#636363;}
	.st41{fill:#F2EDEE;}
	.st42{fill:#F2F0EB;}
	.st43{fill:#E07F4F;}
	.st44{fill:#121C26;}
	.st45{fill:#49211C;}
	.st46{fill:#D83A0F;}
	.st47{fill:#3C3C56;}
	.st48{fill:#8A8A8E;}
	.st49{fill:#44283E;}
	.st50{fill:#553D57;}
	.st51{opacity:0.7;fill:#49363E;}
	.st52{fill:#69698E;}
	.st53{fill:#2D2D3F;}
	.st54{fill:#1D1D28;}
	.st55{fill:#49363E;}
	.st56{fill:#717199;}
	.st57{fill:#00B8D6;}
	.st58{opacity:0.2;fill:#663445;}
	.st59{fill:#FF2E2E;}
	.st60{fill:#FF5555;}
	.st61{opacity:0.5;fill:#FC8F35;}
</style>
<g>
	<g>
		<path class="st0" d="M1116.62,716.44c-6.7,43.95-24.87,85.95-49.72,124.05c-4.55,6.99-9.33,13.84-14.31,20.55H157.11
			c-4.5-6.61-8.86-13.49-13.05-20.55c-25.18-42.52-44.12-92.11-51.19-134.44c-11.79-70.59,4.21-134.14,52.35-189.39
			c26.79-30.74,59.92-46.11,96.25-63.01C184.13,285.77,360.35,137.59,515.71,89.7c213.68-65.86,558.31-19.1,569.59,242.46
			c2.85,66-10.06,127.16-55.6,178.82c0.91-0.23,1.68-1.7,2.38-2.3C1103.67,547.28,1127.77,643.37,1116.62,716.44z"/>
		<rect x="72.89" y="840.49" class="st1" width="1054.21" height="20.55"/>
	</g>
	<g>
		<g>
			<g>
				<g>
					<path class="st2" d="M374.18,406.63l-38.65,6.15c6.44,13.83,4.16,29.09,0.99,42.89c13.42,0.44,27.07,5.93,40.15,2.64
						C383.12,442.4,379.93,422.67,374.18,406.63z"/>
					<path class="st3" d="M375.94,402.24l-38.65,6.15c6.43,13.83,4.16,29.09,0.99,42.89c13.42,0.44,27.07,5.93,40.15,2.64
						C384.87,438.01,381.69,418.28,375.94,402.24z"/>
				</g>
				<path class="st2" d="M347.28,419.76c7.42-2.04,14.95-3.03,22.64-3.05c0.94,0,0.94-1.47,0-1.46c-7.82,0.02-15.49,1.03-23.03,3.1
					C345.98,418.6,346.37,420.01,347.28,419.76L347.28,419.76z"/>
				<path class="st2" d="M349.04,425.47c9.18-2.59,18.68-3.55,28.11-4.83c0.93-0.13,0.53-1.54-0.39-1.41
					c-9.43,1.28-18.92,2.24-28.11,4.83C347.74,424.32,348.13,425.73,349.04,425.47L349.04,425.47z"/>
				<path class="st2" d="M347.52,431.21c8.82-0.53,17.1-3.9,25.67-5.74c0.92-0.2,0.53-1.61-0.39-1.41
					c-8.43,1.81-16.6,5.16-25.28,5.68C346.59,429.8,346.58,431.27,347.52,431.21L347.52,431.21z"/>
				<path class="st2" d="M351.67,435.57c9.06-2.26,18.15-4.42,27.23-6.59c0.92-0.22,0.53-1.63-0.39-1.41
					c-9.08,2.16-18.17,4.33-27.23,6.59C350.37,434.39,350.76,435.8,351.67,435.57L351.67,435.57z"/>
			</g>
			<g>
				<g>
					<path class="st2" d="M799.45,159.98l35.05,11.69c-8.13,11.89-8.36,26.45-7.55,39.8c-12.57-1.66-26.13,1.34-37.8-3.74
						C785.61,191.93,791.62,174.04,799.45,159.98z"/>
					<path class="st4" d="M798.49,155.62l35.05,11.69c-8.13,11.89-8.36,26.45-7.55,39.8c-12.57-1.66-26.13,1.34-37.8-3.74
						C784.65,187.56,790.66,169.68,798.49,155.62z"/>
				</g>
				<path class="st2" d="M822.48,176.37c-6.59-3.04-13.46-5.13-20.62-6.33c-0.88-0.15-0.65-1.51,0.23-1.36
					c7.28,1.23,14.27,3.35,20.97,6.44C823.87,175.49,823.29,176.74,822.48,176.37L822.48,176.37z"/>
				<path class="st2" d="M819.96,181.42c-8.15-3.83-16.85-6.19-25.43-8.84c-0.85-0.26-0.26-1.51,0.58-1.25
					c8.58,2.65,17.28,5.01,25.43,8.84C821.35,180.54,820.77,181.8,819.96,181.42L819.96,181.42z"/>
				<path class="st2" d="M820.49,186.99c-8.13-1.85-15.33-6.27-23.02-9.3c-0.83-0.33-0.25-1.58,0.58-1.25
					c7.57,2.99,14.67,7.37,22.67,9.2C821.58,185.83,821.35,187.19,820.49,186.99L820.49,186.99z"/>
				<path class="st2" d="M815.95,190.42c-8.09-3.51-16.22-6.92-24.34-10.34c-0.82-0.35-0.24-1.6,0.58-1.25
					c8.13,3.42,16.25,6.83,24.34,10.34C817.35,189.52,816.77,190.77,815.95,190.42L815.95,190.42z"/>
			</g>
			<g>
				<g>
					<path class="st5" d="M346.12,231.94l-38.65,6.15c6.44,13.83,4.16,29.09,0.99,42.89c13.42,0.44,27.07,5.93,40.15,2.64
						C355.06,267.72,351.87,247.99,346.12,231.94z"/>
					<path class="st6" d="M347.88,227.55l-38.65,6.15c6.43,13.83,4.16,29.09,0.99,42.89c13.42,0.44,27.07,5.93,40.15,2.64
						C350.02,264.24,351.19,244.92,347.88,227.55z"/>
				</g>
				<path class="st5" d="M321.35,247.42c5.71-2.04,11.51-3.03,17.43-3.05c0.73,0,0.73-1.47,0-1.46c-6.01,0.02-11.93,1.03-17.73,3.1
					C320.36,246.26,320.65,247.67,321.35,247.42L321.35,247.42z"/>
				<path class="st5" d="M322.71,253.13c7.07-2.59,14.38-3.55,21.63-4.83c0.72-0.13,0.41-1.54-0.3-1.41
					c-7.26,1.28-14.57,2.24-21.63,4.83C321.71,251.98,322.01,253.39,322.71,253.13L322.71,253.13z"/>
				<path class="st5" d="M321.54,258.87c6.78-0.53,13.16-3.9,19.76-5.74c0.71-0.2,0.41-1.61-0.3-1.41
					c-6.49,1.81-12.78,5.16-19.46,5.68C320.82,257.46,320.82,258.92,321.54,258.87L321.54,258.87z"/>
				<path class="st5" d="M324.73,263.23c6.97-2.26,13.97-4.42,20.96-6.59c0.71-0.22,0.41-1.63-0.3-1.41
					c-6.99,2.16-13.98,4.33-20.96,6.59C323.73,262.05,324.03,263.46,324.73,263.23L324.73,263.23z"/>
			</g>
			<g>
				<g>
					<path class="st2" d="M433.28,232.71l-38.65,6.15c6.43,13.83,4.16,29.09,0.99,42.89c13.42,0.44,27.07,5.93,40.15,2.64
						C442.22,268.49,439.03,248.76,433.28,232.71z"/>
					<path class="st3" d="M435.04,228.32l-38.65,6.15c6.43,13.83,4.16,29.09,0.99,42.89c13.42,0.44,27.07,5.93,40.15,2.64
						C443.97,264.1,440.79,244.36,435.04,228.32z"/>
				</g>
				<path class="st2" d="M406.38,245.85c7.42-2.04,14.96-3.03,22.64-3.05c0.94,0,0.94-1.47,0-1.46c-7.81,0.02-15.49,1.03-23.03,3.1
					C405.08,244.69,405.47,246.1,406.38,245.85L406.38,245.85z"/>
				<path class="st2" d="M408.14,251.56c9.18-2.59,18.68-3.55,28.11-4.83c0.93-0.13,0.53-1.54-0.39-1.41
					c-9.43,1.28-18.92,2.24-28.11,4.83C406.84,250.4,407.23,251.81,408.14,251.56L408.14,251.56z"/>
				<path class="st2" d="M406.63,257.29c8.82-0.53,17.1-3.9,25.67-5.74c0.92-0.2,0.53-1.61-0.39-1.41
					c-8.43,1.81-16.6,5.16-25.28,5.68C405.69,255.89,405.68,257.35,406.63,257.29L406.63,257.29z"/>
				<path class="st2" d="M410.77,261.66c9.06-2.26,18.14-4.42,27.23-6.59c0.92-0.22,0.53-1.63-0.39-1.41
					c-9.08,2.16-18.17,4.33-27.23,6.59C409.47,260.48,409.86,261.89,410.77,261.66L410.77,261.66z"/>
			</g>
			<g>
				<g>
					<path class="st7" d="M299.96,366.74l-33.38,1.76c4.39,14.03-1.1,30.37,4.55,44.67c9.25-1.13,21.46-0.41,30.46-3.53
						C302.28,396.7,304.17,378.73,299.96,366.74z"/>
					<path class="st4" d="M302.6,363.23l-33.38,1.76c4.39,14.04-1.1,30.37,4.55,44.67c9.25-1.13,21.46-0.41,30.46-3.53
						C304.91,393.18,306.81,375.22,302.6,363.23z"/>
				</g>
				<path class="st7" d="M276.02,378.91c1.95,0.83,4.74-0.03,6.71-0.39c3.01-0.56,5.99-1.34,9.03-1.7c0.93-0.11,0.94-1.57,0-1.46
					c-2.68,0.32-5.33,0.95-7.98,1.48c-1.37,0.27-2.74,0.53-4.12,0.73c-0.8,0.11-2.13,0.43-2.91,0.09
					C275.9,377.28,275.15,378.54,276.02,378.91L276.02,378.91z"/>
				<path class="st7" d="M274.19,384.28c8.27-0.95,16.34-3.07,24.35-5.3c0.91-0.25,0.52-1.66-0.39-1.41
					c-7.88,2.18-15.82,4.31-23.96,5.24C273.27,382.92,273.26,384.39,274.19,384.28L274.19,384.28z"/>
				<path class="st7" d="M276.83,388.24c4.54-0.61,8.91-2.09,13.37-3.1c0.92-0.21,0.53-1.62-0.39-1.41
					c-4.32,0.98-8.58,2.46-12.98,3.05C275.91,386.89,275.89,388.36,276.83,388.24L276.83,388.24z"/>
				<path class="st7" d="M277.95,390.51c0.57,0.91,1.93,0.8,2.86,0.74c1.93-0.13,3.85-0.57,5.73-1c4.04-0.92,8.07-2.05,12-3.36
					c0.89-0.3,0.51-1.71-0.39-1.41c-3.31,1.1-6.67,2.04-10.05,2.89c-1.92,0.48-3.85,0.92-5.8,1.23c-0.44,0.07-2.87,0.5-3.08,0.17
					C278.72,388.97,277.45,389.71,277.95,390.51L277.95,390.51z"/>
				<path class="st7" d="M279.27,391.96c-0.45,0.71-0.89,0.78-0.98,1.69c-0.04,0.4,0.36,0.73,0.73,0.73
					c4.88-0.03,9.7-0.88,14.25-2.66c0.87-0.34,0.49-1.76-0.39-1.41c-4.44,1.74-9.1,2.58-13.86,2.61c0.24,0.24,0.49,0.49,0.73,0.73
					c0.02-0.2,0.65-0.75,0.78-0.95C281.04,391.9,279.78,391.17,279.27,391.96L279.27,391.96z"/>
				<path class="st7" d="M283.92,396.04c2.43,1.63,5.96,1,8.71,0.98c0.94-0.01,0.94-1.47,0-1.46c-2.46,0.02-5.81,0.67-7.98-0.78
					C283.88,394.25,283.14,395.52,283.92,396.04L283.92,396.04z"/>
			</g>
			<g>
				<g>
					<path class="st7" d="M945.12,297.19l-33.38,1.76c4.39,14.03-1.1,30.37,4.55,44.67c9.25-1.13,21.46-0.41,30.46-3.53
						C947.43,327.14,949.33,309.18,945.12,297.19z"/>
					<path class="st4" d="M947.76,293.67l-33.38,1.76c4.39,14.04-1.1,30.37,4.55,44.67c9.25-1.13,21.46-0.41,30.46-3.53
						C950.07,323.63,951.97,305.66,947.76,293.67z"/>
				</g>
				<path class="st7" d="M921.18,309.36c1.95,0.83,4.74-0.03,6.71-0.39c3.01-0.56,5.99-1.34,9.03-1.7c0.93-0.11,0.94-1.57,0-1.46
					c-2.68,0.32-5.33,0.95-7.98,1.48c-1.37,0.27-2.74,0.53-4.12,0.72c-0.8,0.11-2.12,0.43-2.91,0.09
					C921.06,307.73,920.31,308.99,921.18,309.36L921.18,309.36z"/>
				<path class="st7" d="M919.35,314.73c8.27-0.95,16.34-3.07,24.35-5.3c0.91-0.25,0.52-1.66-0.39-1.41
					c-7.88,2.18-15.82,4.31-23.96,5.24C918.42,313.37,918.41,314.84,919.35,314.73L919.35,314.73z"/>
				<path class="st7" d="M921.98,318.68c4.54-0.61,8.91-2.09,13.37-3.1c0.92-0.21,0.53-1.62-0.39-1.41
					c-4.32,0.98-8.58,2.46-12.98,3.05C921.06,317.34,921.05,318.81,921.98,318.68L921.98,318.68z"/>
				<path class="st7" d="M923.11,320.95c0.57,0.91,1.93,0.8,2.86,0.74c1.93-0.13,3.85-0.57,5.73-1c4.04-0.92,8.07-2.05,12-3.36
					c0.89-0.3,0.51-1.71-0.39-1.41c-3.31,1.1-6.67,2.04-10.05,2.89c-1.92,0.48-3.85,0.92-5.8,1.23c-0.44,0.07-2.87,0.5-3.08,0.17
					C923.87,319.42,922.61,320.15,923.11,320.95L923.11,320.95z"/>
				<path class="st7" d="M924.43,322.41c-0.45,0.71-0.89,0.78-0.98,1.69c-0.04,0.4,0.36,0.73,0.73,0.73
					c4.88-0.03,9.7-0.88,14.25-2.66c0.87-0.34,0.49-1.76-0.39-1.41c-4.44,1.74-9.1,2.58-13.86,2.61c0.24,0.24,0.49,0.49,0.73,0.73
					c0.02-0.2,0.65-0.75,0.78-0.95C926.2,322.35,924.93,321.62,924.43,322.41L924.43,322.41z"/>
				<path class="st7" d="M929.08,326.49c2.43,1.63,5.96,1,8.71,0.98c0.94-0.01,0.94-1.47,0-1.46c-2.46,0.02-5.81,0.67-7.98-0.78
					C929.03,324.7,928.3,325.96,929.08,326.49L929.08,326.49z"/>
			</g>
			<g>
				<g>
					<path class="st7" d="M595.87,315.18l-33.38,1.76c4.39,14.03-1.1,30.37,4.55,44.67c9.25-1.13,21.46-0.41,30.46-3.53
						C598.18,345.14,600.08,327.17,595.87,315.18z"/>
					<path class="st4" d="M598.51,311.67l-33.38,1.76c4.39,14.04-1.1,30.37,4.55,44.67c9.25-1.13,21.46-0.41,30.46-3.53
						C600.82,341.62,602.71,323.66,598.51,311.67z"/>
				</g>
				<path class="st7" d="M571.93,327.35c1.95,0.83,4.74-0.03,6.71-0.39c3.01-0.56,5.99-1.34,9.03-1.7c0.93-0.11,0.94-1.57,0-1.46
					c-2.68,0.32-5.33,0.95-7.98,1.48c-1.37,0.27-2.74,0.53-4.12,0.73c-0.8,0.11-2.13,0.43-2.91,0.09
					C571.81,325.72,571.06,326.98,571.93,327.35L571.93,327.35z"/>
				<path class="st7" d="M570.1,332.72c8.27-0.95,16.34-3.07,24.35-5.3c0.91-0.25,0.52-1.66-0.39-1.41
					c-7.88,2.18-15.82,4.31-23.96,5.24C569.17,331.36,569.16,332.83,570.1,332.72L570.1,332.72z"/>
				<path class="st7" d="M572.73,336.67c4.54-0.61,8.91-2.09,13.37-3.1c0.92-0.21,0.53-1.62-0.39-1.41
					c-4.32,0.98-8.58,2.46-12.98,3.05C571.81,335.33,571.8,336.8,572.73,336.67L572.73,336.67z"/>
				<path class="st7" d="M573.86,338.95c0.57,0.91,1.93,0.8,2.86,0.74c1.93-0.13,3.85-0.57,5.73-1c4.04-0.92,8.07-2.05,12-3.36
					c0.89-0.3,0.51-1.71-0.39-1.41c-3.31,1.1-6.67,2.04-10.05,2.89c-1.92,0.48-3.85,0.92-5.8,1.23c-0.44,0.07-2.87,0.5-3.08,0.17
					C574.62,337.41,573.36,338.14,573.86,338.95L573.86,338.95z"/>
				<path class="st7" d="M575.18,340.4c-0.45,0.71-0.89,0.78-0.98,1.69c-0.04,0.4,0.36,0.73,0.73,0.73
					c4.88-0.03,9.7-0.88,14.25-2.66c0.87-0.34,0.49-1.76-0.39-1.41c-4.44,1.74-9.1,2.58-13.86,2.61c0.24,0.24,0.49,0.49,0.73,0.73
					c0.02-0.2,0.65-0.75,0.78-0.95C576.95,340.34,575.68,339.61,575.18,340.4L575.18,340.4z"/>
				<path class="st7" d="M579.83,344.48c2.43,1.63,5.96,1,8.71,0.98c0.94-0.01,0.94-1.47,0-1.46c-2.46,0.02-5.81,0.67-7.98-0.78
					C579.78,342.69,579.05,343.96,579.83,344.48L579.83,344.48z"/>
			</g>
			<g>
				<g>
					<path class="st8" d="M380,372.81c-4.44-12.03-8.4-24.45-11.48-37.38c-7.33,9.32-34.52,10.61-34.52,10.61
						c5.89,12.84,11.49,29.34,11.5,43.14C357.13,385.08,369.13,378.99,380,372.81z"/>
					<path class="st9" d="M380.8,368.97c-4.44-12.03-8.4-24.45-11.48-37.38c-7.33,9.32-34.52,10.61-34.52,10.61
						c5.89,12.84,11.49,29.34,11.5,43.14C357.94,381.23,369.93,375.14,380.8,368.97z"/>
				</g>
				<path class="st8" d="M348.86,351.53c2.71,0.99,5.88-0.18,8.4-1.21c3.08-1.25,5.98-2.9,8.81-4.62c0.8-0.49,0.07-1.76-0.74-1.27
					c-2.44,1.49-4.93,2.89-7.54,4.08c-2.45,1.11-5.84,2.6-8.55,1.61C348.36,349.8,347.98,351.21,348.86,351.53L348.86,351.53z"/>
				<path class="st8" d="M350.99,357.4c3.17-1.39,6.59-2.14,9.79-3.46c0.86-0.35,0.5-1.77-0.37-1.42
					c-3.32,1.37-6.85,2.17-10.15,3.61C349.39,356.52,350.14,357.78,350.99,357.4L350.99,357.4z"/>
				<path class="st8" d="M350.45,359.29c3.78,1.59,8.15-0.7,11.65-2.06c0.87-0.34,0.51-1.76-0.37-1.42
					c-3.23,1.26-7.39,3.53-10.88,2.07C349.97,357.51,349.59,358.93,350.45,359.29L350.45,359.29z"/>
				<path class="st8" d="M348.87,366.59c5.84-3.41,12.46-5.09,18.68-7.63c0.86-0.35,0.5-1.77-0.37-1.42
					c-6.34,2.58-13.09,4.3-19.04,7.78C347.32,365.8,348.06,367.07,348.87,366.59L348.87,366.59z"/>
				<path class="st8" d="M352.9,370.56c4.06-1.57,8.13-3.12,12.05-5.02c0.85-0.41,0.11-1.68-0.74-1.27
					c-3.8,1.84-7.74,3.35-11.69,4.87C351.65,369.48,352.02,370.9,352.9,370.56L352.9,370.56z"/>
				<path class="st8" d="M354.4,373.12c1.45,0.62,3.47-0.58,4.76-1.16c2.25-1.01,4.44-2.2,6.57-3.45c0.81-0.48,0.08-1.75-0.74-1.27
					c-1.72,1.01-3.48,1.96-5.27,2.84c-0.95,0.47-1.91,0.91-2.9,1.29c-0.34,0.13-1.42,0.6-1.69,0.49
					C354.28,371.48,353.53,372.74,354.4,373.12L354.4,373.12z"/>
			</g>
			<g>
				<g>
					<path class="st10" d="M373.68,257.21c-4.44-12.03-8.4-24.45-11.48-37.38c-7.33,9.32-34.52,10.61-34.52,10.61
						c5.89,12.84,11.49,29.34,11.5,43.14C350.81,269.47,362.81,263.39,373.68,257.21z"/>
					<path class="st9" d="M374.48,253.37c-4.44-12.03-8.4-24.45-11.48-37.38c-25.1,7.57-35.32,14.45-35.32,14.45
						c5.89,12.84,12.3,25.49,12.3,39.3C351.61,265.63,363.61,259.54,374.48,253.37z"/>
				</g>
				<path class="st8" d="M342.54,235.93c2.71,0.99,5.88-0.18,8.4-1.21c3.08-1.25,5.98-2.9,8.81-4.62c0.8-0.49,0.07-1.76-0.74-1.27
					c-2.44,1.49-4.93,2.89-7.54,4.08c-2.45,1.11-5.84,2.6-8.55,1.61C342.04,234.19,341.66,235.61,342.54,235.93L342.54,235.93z"/>
				<path class="st8" d="M344.67,241.8c3.17-1.39,6.59-2.14,9.79-3.46c0.86-0.35,0.5-1.78-0.37-1.42
					c-3.32,1.37-6.85,2.17-10.15,3.61C343.07,240.91,343.81,242.18,344.67,241.8L344.67,241.8z"/>
				<path class="st8" d="M344.13,243.69c3.78,1.59,8.15-0.7,11.65-2.06c0.87-0.34,0.51-1.76-0.37-1.42
					c-3.23,1.26-7.39,3.53-10.88,2.07C343.65,241.91,343.27,243.33,344.13,243.69L344.13,243.69z"/>
				<path class="st8" d="M342.55,250.99c5.84-3.41,12.46-5.09,18.68-7.63c0.86-0.35,0.5-1.77-0.37-1.42
					c-6.34,2.58-13.1,4.3-19.04,7.78C341,250.2,341.74,251.47,342.55,250.99L342.55,250.99z"/>
				<path class="st8" d="M346.58,254.95c4.06-1.57,8.13-3.12,12.05-5.02c0.85-0.41,0.11-1.68-0.74-1.27
					c-3.8,1.84-7.75,3.35-11.69,4.87C345.33,253.87,345.7,255.29,346.58,254.95L346.58,254.95z"/>
				<path class="st8" d="M348.08,257.51c1.45,0.62,3.47-0.58,4.76-1.16c2.25-1.01,4.44-2.2,6.57-3.45c0.81-0.48,0.08-1.75-0.74-1.27
					c-1.72,1.01-3.48,1.96-5.27,2.84c-0.95,0.47-1.91,0.91-2.9,1.29c-0.34,0.13-1.42,0.6-1.69,0.49
					C347.96,255.88,347.21,257.14,348.08,257.51L348.08,257.51z"/>
			</g>
			<g>
				<g>
					<path class="st8" d="M484.62,191.45c-1.22-12.77-1.88-25.78-1.56-39.07c-9.47,7.14-36.08,1.45-36.08,1.45
						c2.41,13.92,3.63,31.3,0.11,44.65C459.38,197.48,472.53,194.65,484.62,191.45z"/>
					<path class="st9" d="M486.38,187.94c-1.22-12.77-1.88-25.78-1.56-39.07c-9.47,7.14-36.08,1.45-36.08,1.45
						c2.41,13.92,3.63,31.3,0.11,44.65C461.14,193.96,474.29,191.14,486.38,187.94z"/>
				</g>
				<path class="st8" d="M459.94,162.93c2.36,1.65,5.74,1.32,8.43,0.98c3.29-0.42,6.52-1.27,9.7-2.22c0.9-0.27,0.52-1.68-0.39-1.41
					c-2.74,0.82-5.51,1.54-8.33,2.02c-2.65,0.45-6.31,1.02-8.68-0.63C459.9,161.12,459.17,162.39,459.94,162.93L459.94,162.93z"/>
				<path class="st8" d="M460.5,169.15c3.42-0.53,6.91-0.39,10.35-0.85c0.92-0.12,0.93-1.59,0-1.46c-3.56,0.48-7.18,0.35-10.74,0.9
					C459.18,167.89,459.58,169.3,460.5,169.15L460.5,169.15z"/>
				<path class="st8" d="M459.5,170.84c3.25,2.5,8.06,1.4,11.79,0.98c0.93-0.11,0.94-1.57,0-1.46c-3.45,0.39-8.05,1.53-11.05-0.78
					C459.49,169,458.76,170.27,459.5,170.84L459.5,170.84z"/>
				<path class="st8" d="M456.11,177.5c6.51-1.8,13.35-1.74,20.01-2.61c0.92-0.12,0.93-1.59,0-1.46c-6.79,0.88-13.76,0.82-20.4,2.66
					C454.81,176.34,455.2,177.75,456.11,177.5L456.11,177.5z"/>
				<path class="st8" d="M458.99,182.36c4.33-0.48,8.65-0.95,12.93-1.78c0.93-0.18,0.53-1.59-0.39-1.41
					c-4.15,0.81-8.34,1.27-12.54,1.73C458.06,180.99,458.05,182.46,458.99,182.36L458.99,182.36z"/>
				<path class="st8" d="M459.79,185.22c1.24,0.97,3.5,0.33,4.9,0.09c2.44-0.4,4.86-0.99,7.23-1.66c0.91-0.26,0.52-1.67-0.39-1.41
					c-1.92,0.54-3.86,1-5.82,1.4c-1.04,0.21-2.08,0.39-3.13,0.51c-0.36,0.04-1.53,0.22-1.76,0.04
					C460.09,183.61,459.05,184.63,459.79,185.22L459.79,185.22z"/>
			</g>
			<g>
				<g>
					<path class="st5" d="M867.22,265.29c1.98-12.67,4.56-25.45,8.15-38.24c-10.94,4.58-35.32-7.52-35.32-7.52
						c-1.1,14.08-4.22,31.23-10.93,43.29C841.28,264.88,854.72,265.4,867.22,265.29z"/>
					<path class="st6" d="M869.79,262.32c1.98-12.67,4.56-25.45,8.15-38.24c-14.43-3.39-35.32-7.52-35.32-7.52
						c-1.1,14.08-4.22,31.23-10.93,43.29C843.85,261.91,857.29,262.43,869.79,262.32z"/>
				</g>
				<path class="st5" d="M850.36,231.55c1.88,2.18,5.23,2.7,7.93,3.03c3.3,0.41,6.64,0.38,9.95,0.25c0.94-0.04,0.92-1.5-0.03-1.46
					c-2.86,0.12-5.72,0.13-8.57-0.1c-2.68-0.22-6.37-0.57-8.25-2.75C850.77,229.79,849.75,230.84,850.36,231.55L850.36,231.55z"/>
				<path class="st5" d="M849.37,237.72c3.45,0.33,6.8,1.33,10.24,1.73c0.92,0.11,1.3-1.31,0.36-1.42
					c-3.57-0.42-7.05-1.43-10.63-1.78C848.4,236.17,848.44,237.63,849.37,237.72L849.37,237.72z"/>
				<path class="st5" d="M847.98,239.1c2.53,3.23,7.47,3.35,11.18,3.86c0.92,0.13,1.3-1.29,0.36-1.42
					c-3.44-0.47-8.18-0.51-10.51-3.49C848.42,237.32,847.4,238.37,847.98,239.1L847.98,239.1z"/>
				<path class="st5" d="M843.05,244.72c6.76-0.14,13.36,1.61,20.03,2.42c0.92,0.11,1.3-1.3,0.36-1.42
					c-6.8-0.83-13.54-2.61-20.42-2.47C842.08,243.27,842.1,244.74,843.05,244.72L843.05,244.72z"/>
				<path class="st5" d="M844.64,250.14c4.31,0.61,8.62,1.22,12.97,1.47c0.94,0.05,0.91-1.41-0.03-1.46
					c-4.22-0.24-8.4-0.84-12.58-1.43C844.07,248.59,843.7,250.01,844.64,250.14L844.64,250.14z"/>
				<path class="st5" d="M844.71,253.11c0.96,1.25,3.31,1.18,4.72,1.3c2.46,0.21,4.95,0.24,7.42,0.18c0.94-0.02,0.92-1.49-0.03-1.46
					c-1.99,0.05-3.99,0.02-5.98-0.08c-1.06-0.05-2.11-0.14-3.16-0.29c-0.36-0.05-1.54-0.17-1.71-0.39
					C845.39,251.62,844.13,252.36,844.71,253.11L844.71,253.11z"/>
			</g>
			<g>
				<g class="st11">
					<g>
						<path class="st5" d="M580.3,278.3c0.01-0.03,0.01-0.05,0.01-0.08c-0.02,0-0.05,0.01-0.07,0.01
							C579.93,278.55,579.95,278.57,580.3,278.3z"/>
						<path class="st5" d="M677.63,200c1.77-21.76,2.01-43.62,2.68-65.37c-3.81-0.51-7.68-0.84-11.58-1.05
							c-0.13-0.02-0.25-0.04-0.39-0.05c-0.19-0.02-0.37-0.01-0.56,0c-9.77-0.49-19.69-0.25-29.26-0.1
							c-11.48,0.19-23.85-0.38-35.34,0.67l-14.85-0.31c-0.21-0.06-0.43-0.1-0.65-0.12c-0.39-0.03-0.77,0-1.13,0.08l-11.04-0.23
							c7.42,20.79,6.63,50.23,7.76,72.25c1.21,23.61,1.31,49.05-2.97,72.45c13.93-2.64,31.28,4.61,46.09,4.13
							c13.71-0.45,28.66-2.9,41.47-5.33c0.39-11.25,4.67-22.59,6.24-33.81C676.09,228.98,676.47,214.33,677.63,200z"/>
					</g>
				</g>
				<g>
					<g>
						<g>
							<path class="st12" d="M591.33,271.53c0-0.03,0.01-0.05,0.01-0.08c-0.02,0.01-0.05,0.01-0.07,0.02
								C590.99,271.81,591.01,271.83,591.33,271.53z"/>
							<path class="st12" d="M681.98,185.58c0-21.83-1.54-43.64-2.64-65.37c-13.79-0.7-28.11,0.86-41.74,2.2
								c-11.42,1.12-23.8,1.56-35.17,3.54l-27.63,1.67c9.08,20.12,10.69,49.52,13.6,71.38c3.13,23.44,5.29,48.78,2.92,72.45
								c13.67-3.77,31.55,2.05,46.27,0.37c13.63-1.56,28.33-5.22,40.9-8.68c-0.52-11.24,2.82-22.89,3.47-34.21
								C682.8,214.59,681.98,199.95,681.98,185.58z"/>
						</g>
						<g>
							<path class="st13" d="M605.57,158.84c3.78,1.07,8.02-0.22,11.63-1.37c4.74-1.51,9.28-3.49,14.06-4.93
								c11.64-3.5,23.61-6.02,35.83-5.47c1.35,0.06,1.34-2.03,0-2.09c-11.61-0.53-23,1.7-34.12,4.88
								c-4.78,1.37-9.34,3.08-13.99,4.79c-3.81,1.4-8.76,3.33-12.85,2.17C604.83,156.46,604.28,158.48,605.57,158.84L605.57,158.84z
								"/>
							<path class="st13" d="M605.72,169.8c18.74-10.81,40.56-17.4,62.03-19.78c1.33-0.15,1.34-2.24,0-2.09
								c-21.84,2.42-44,9.05-63.08,20.06C603.5,168.67,604.55,170.48,605.72,169.8L605.72,169.8z"/>
							<path class="st13" d="M600.45,175.7c17.83-8.02,37.84-8.26,56.38-13.91c1.29-0.39,0.74-2.41-0.56-2.02
								c-18.73,5.71-38.86,6.01-56.88,14.12C598.17,174.45,599.23,176.25,600.45,175.7L600.45,175.7z"/>
							<path class="st13" d="M609.42,178.02c16.5-2.22,32.99-4.45,49.38-7.38c1.33-0.24,0.76-2.25-0.56-2.02
								c-16.39,2.93-32.89,5.16-49.38,7.38C607.53,176.18,608.1,178.2,609.42,178.02L609.42,178.02z"/>
							<path class="st13" d="M608.21,188.35c2.67,0.69,5.54,0.26,8.22-0.19c4.21-0.7,8.34-1.88,12.43-3.08
								c8.18-2.39,16.29-5.45,24.68-7.06c1.32-0.25,0.76-2.27-0.56-2.02c-7.84,1.5-15.43,4.3-23.06,6.58
								c-4.05,1.21-8.12,2.36-12.26,3.22c-2.81,0.58-6.06,1.26-8.9,0.53C607.46,186,606.9,188.01,608.21,188.35L608.21,188.35z"/>
							<path class="st13" d="M612.44,196.5c10.9,0.78,22.17-2.12,32.54-5.2c1.29-0.38,0.74-2.4-0.56-2.02
								c-10.21,3.03-21.25,5.89-31.99,5.13C611.09,194.32,611.1,196.41,612.44,196.5L612.44,196.5z"/>
							<path class="st13" d="M618.28,204.31c3.65,3.79,11.27,1.64,15.6,0.55c5.9-1.48,11.81-3.6,17.28-6.29
								c1.21-0.6,0.15-2.4-1.06-1.81c-4.87,2.4-10.09,4.23-15.31,5.69c-2.94,0.82-5.95,1.49-9,1.71c-1.95,0.14-4.56,0.19-6.03-1.33
								C618.82,201.86,617.35,203.34,618.28,204.31L618.28,204.31z"/>
							<path class="st13" d="M629.94,215.65c5.15,1.55,10.65,0.92,15.88,0.19c6.2-0.86,12.36-2.31,18.64-2.37
								c1.35-0.01,1.35-2.1,0-2.09c-5.58,0.05-11.09,1.17-16.58,2.05c-5.64,0.9-11.79,1.89-17.38,0.2
								C629.2,213.24,628.65,215.26,629.94,215.65L629.94,215.65z"/>
							<path class="st13" d="M607.45,230.4c18.23-5.39,37.89-2.74,55.97-8.85c1.27-0.43,0.73-2.45-0.56-2.02
								c-18.08,6.11-37.73,3.47-55.97,8.85C605.6,228.77,606.15,230.79,607.45,230.4L607.45,230.4z"/>
							<path class="st13" d="M615.73,243.72c14.54-1.05,27.53-9.42,42.14-10.33c1.34-0.08,1.35-2.18,0-2.09
								c-7.25,0.45-14.24,2.65-21.1,4.88c-6.83,2.22-13.81,4.93-21.04,5.45C614.39,241.72,614.38,243.82,615.73,243.72
								L615.73,243.72z"/>
							<path class="st13" d="M621.57,245.62c-0.88,0.74-1.86,0.73-2.24,1.94c-0.19,0.59,0.34,1.41,1.01,1.32
								c10.61-1.41,21.45-0.17,31.88-2.99c1.3-0.35,0.75-2.37-0.56-2.02c-10.25,2.76-20.9,1.53-31.33,2.91
								c0.34,0.44,0.67,0.88,1.01,1.32c0.05-0.15,1.46-0.8,1.71-1.01C624.09,246.23,622.6,244.76,621.57,245.62L621.57,245.62z"/>
							<path class="st13" d="M637.18,251.8c4.29,1.68,9.4-0.02,13.73-0.74c1.33-0.22,0.76-2.24-0.56-2.02
								c-3.98,0.66-8.68,2.28-12.61,0.74C636.48,249.29,635.94,251.31,637.18,251.8L637.18,251.8z"/>
						</g>
					</g>
					<path class="st14" d="M590.72,130.55c0,2.08-1.69,3.77-3.77,3.77c-2.08,0-3.77-1.69-3.77-3.77c0-2.08,1.69-3.77,3.77-3.77
						C589.03,126.78,590.72,128.47,590.72,130.55z"/>
					<path class="st15" d="M671.1,123.85c0,2.08-1.69,3.77-3.77,3.77c-2.08,0-3.77-1.69-3.77-3.77c0-2.08,1.69-3.77,3.77-3.77
						C669.41,120.09,671.1,121.77,671.1,123.85z"/>
				</g>
			</g>
			<g>
				<g>
					<path class="st8" d="M764.3,265.55c-1.22-12.77-1.88-25.78-1.56-39.07c-9.47,7.14-36.08,1.45-36.08,1.45
						c2.41,13.92,3.63,31.3,0.11,44.65C739.07,271.58,752.22,268.75,764.3,265.55z"/>
					<path class="st9" d="M766.06,262.04c-1.22-12.77-1.88-25.78-1.56-39.07c-9.47,7.14-36.08,1.45-36.08,1.45
						c2.41,13.92,3.63,31.3,0.11,44.65C740.82,268.06,753.97,265.23,766.06,262.04z"/>
				</g>
				<path class="st8" d="M739.62,237.03c2.36,1.65,5.74,1.32,8.43,0.98c3.29-0.42,6.52-1.27,9.7-2.22c0.9-0.27,0.52-1.68-0.39-1.41
					c-2.74,0.82-5.51,1.54-8.33,2.02c-2.65,0.45-6.31,1.02-8.68-0.63C739.59,235.22,738.85,236.49,739.62,237.03L739.62,237.03z"/>
				<path class="st8" d="M740.19,243.25c3.42-0.53,6.92-0.39,10.35-0.85c0.92-0.12,0.93-1.59,0-1.46c-3.56,0.48-7.18,0.35-10.74,0.9
					C738.87,241.99,739.26,243.4,740.19,243.25L740.19,243.25z"/>
				<path class="st8" d="M739.18,244.94c3.25,2.5,8.06,1.4,11.79,0.98c0.93-0.11,0.94-1.57,0-1.46c-3.45,0.39-8.05,1.53-11.05-0.78
					C739.17,243.1,738.45,244.37,739.18,244.94L739.18,244.94z"/>
				<path class="st8" d="M735.8,251.6c6.51-1.8,13.35-1.75,20.01-2.61c0.92-0.12,0.93-1.59,0-1.46c-6.79,0.88-13.76,0.82-20.4,2.66
					C734.5,250.44,734.88,251.85,735.8,251.6L735.8,251.6z"/>
				<path class="st8" d="M738.68,256.45c4.33-0.48,8.65-0.95,12.93-1.78c0.93-0.18,0.53-1.59-0.39-1.41
					c-4.15,0.81-8.34,1.27-12.54,1.73C737.75,255.09,737.74,256.56,738.68,256.45L738.68,256.45z"/>
				<path class="st8" d="M739.47,259.31c1.24,0.97,3.5,0.33,4.9,0.09c2.44-0.4,4.86-0.99,7.23-1.66c0.91-0.26,0.52-1.67-0.39-1.41
					c-1.92,0.54-3.86,1-5.82,1.4c-1.04,0.21-2.08,0.39-3.13,0.51c-0.36,0.04-1.53,0.22-1.76,0.04
					C739.78,257.71,738.73,258.73,739.47,259.31L739.47,259.31z"/>
			</g>
			<g>
				<g>
					<path class="st8" d="M288.82,346.35c-1.22-12.77-1.88-25.78-1.56-39.07c-9.47,7.14-36.08,1.45-36.08,1.45
						c2.41,13.92,3.63,31.3,0.11,44.65C263.58,352.37,276.74,349.54,288.82,346.35z"/>
					<path class="st9" d="M290.58,342.83c-1.22-12.77-1.88-25.78-1.56-39.07c-9.47,7.14-36.08,1.45-36.08,1.45
						c2.41,13.92,3.63,31.3,0.11,44.65C265.34,348.85,278.49,346.03,290.58,342.83z"/>
				</g>
				<path class="st8" d="M264.14,317.82c2.36,1.65,5.74,1.32,8.43,0.98c3.29-0.42,6.52-1.27,9.7-2.22c0.9-0.27,0.52-1.68-0.39-1.41
					c-2.74,0.82-5.51,1.54-8.33,2.02c-2.65,0.45-6.31,1.02-8.68-0.63C264.11,316.02,263.37,317.29,264.14,317.82L264.14,317.82z"/>
				<path class="st8" d="M264.71,324.05c3.42-0.53,6.91-0.39,10.35-0.85c0.92-0.12,0.93-1.59,0-1.46c-3.56,0.48-7.18,0.35-10.74,0.9
					C263.39,322.78,263.78,324.19,264.71,324.05L264.71,324.05z"/>
				<path class="st8" d="M263.7,325.73c3.25,2.5,8.06,1.4,11.79,0.98c0.93-0.11,0.94-1.57,0-1.46c-3.45,0.39-8.05,1.53-11.05-0.78
					C263.69,323.89,262.97,325.16,263.7,325.73L263.7,325.73z"/>
				<path class="st8" d="M260.31,332.39c6.51-1.81,13.35-1.74,20.01-2.61c0.92-0.12,0.93-1.59,0-1.46
					c-6.79,0.88-13.76,0.82-20.4,2.66C259.02,331.23,259.4,332.64,260.31,332.39L260.31,332.39z"/>
				<path class="st8" d="M263.19,337.25c4.33-0.48,8.65-0.95,12.93-1.78c0.93-0.18,0.53-1.59-0.39-1.41
					c-4.15,0.81-8.34,1.27-12.54,1.73C262.27,335.89,262.26,337.35,263.19,337.25L263.19,337.25z"/>
				<path class="st8" d="M263.99,340.11c1.24,0.97,3.5,0.33,4.9,0.09c2.44-0.4,4.86-0.99,7.23-1.66c0.91-0.26,0.52-1.67-0.39-1.41
					c-1.92,0.54-3.86,1-5.82,1.4c-1.04,0.21-2.08,0.39-3.13,0.51c-0.36,0.04-1.53,0.22-1.76,0.04
					C264.3,338.5,263.25,339.53,263.99,340.11L263.99,340.11z"/>
			</g>
		</g>
		<g>
			<g>
				<g>
					<path class="st16" d="M618.05,485.45c0.41,5.94-4.07,10.75-10.01,10.75h-33.69c-5.94,0-10.15-4.81-9.41-10.75l8.51-68.09
						c0.74-5.94,4.64-10.75,8.7-10.75h23.06c4.06,0,7.69,4.81,8.1,10.75L618.05,485.45z"/>
					<path class="st17" d="M608.88,483.57c0.33,4.64-3.25,8.4-7.99,8.4h-26.91c-4.74,0-8.11-3.76-7.51-8.4l6.8-53.22
						c0.59-4.64,3.71-8.4,6.95-8.4h18.42c3.25,0,6.14,3.76,6.47,8.4L608.88,483.57z"/>
					<g>
						<path class="st16" d="M588.35,487.37c-9.79,0-17.75-7.96-17.75-17.74c0-9.78,7.96-17.75,17.75-17.75
							c9.78,0,17.74,7.96,17.74,17.75C606.1,479.41,598.14,487.37,588.35,487.37z M588.35,453.2c-9.06,0-16.42,7.37-16.42,16.42
							c0,9.06,7.37,16.42,16.42,16.42c9.06,0,16.42-7.37,16.42-16.42C604.78,460.57,597.41,453.2,588.35,453.2z"/>
						<path class="st16" d="M588.35,456.01c-7.51,0-13.61,6.11-13.61,13.61s6.11,13.61,13.61,13.61c7.51,0,13.61-6.11,13.61-13.61
							S595.86,456.01,588.35,456.01z"/>
					</g>
					<g>
						<path class="st16" d="M588.35,447.7c-5.53,0-10.03-4.5-10.03-10.03c0-5.53,4.5-10.03,10.03-10.03
							c5.53,0,10.03,4.5,10.03,10.03C598.39,443.2,593.89,447.7,588.35,447.7z M588.35,428.38c-5.12,0-9.29,4.17-9.29,9.29
							c0,5.12,4.17,9.29,9.29,9.29c5.12,0,9.29-4.17,9.29-9.29C597.64,432.54,593.48,428.38,588.35,428.38z"/>
						<path class="st16" d="M588.35,429.97c-4.25,0-7.7,3.45-7.7,7.7c0,4.25,3.45,7.7,7.7,7.7s7.7-3.45,7.7-7.7
							C596.05,433.42,592.6,429.97,588.35,429.97z"/>
					</g>
				</g>
				<g>
					<g>
						<g>
							<rect x="1054.19" y="514.77" class="st18" width="28.59" height="326.42"/>
							<rect x="1054.19" y="829.79" class="st19" width="28.59" height="11.4"/>
						</g>
						<path class="st20" d="M1065.35,795.55c0,2.04-1.31,3.69-2.92,3.69l0,0c-1.61,0-2.92-1.65-2.92-3.69V532.46
							c0-2.04,1.31-3.69,2.92-3.69l0,0c1.61,0,2.92,1.65,2.92,3.69V795.55z"/>
					</g>
					<g>
						<g>
							<rect x="850.32" y="514.77" class="st18" width="28.59" height="326.42"/>
							<rect x="850.32" y="829.79" class="st19" width="28.59" height="11.4"/>
						</g>
						<path class="st20" d="M861.48,795.55c0,2.04-1.31,3.69-2.92,3.69l0,0c-1.61,0-2.92-1.65-2.92-3.69V532.46
							c0-2.04,1.31-3.69,2.92-3.69l0,0c1.61,0,2.92,1.65,2.92,3.69V795.55z"/>
					</g>
					<g>
						<g>
							<rect x="523.28" y="514.77" class="st18" width="28.59" height="326.42"/>
							<rect x="523.28" y="829.79" class="st19" width="28.59" height="11.4"/>
						</g>
						<path class="st20" d="M534.44,795.55c0,2.04-1.31,3.69-2.92,3.69l0,0c-1.61,0-2.92-1.65-2.92-3.69V532.46
							c0-2.04,1.31-3.69,2.92-3.69l0,0c1.61,0,2.92,1.65,2.92,3.69V795.55z"/>
					</g>
					<g>
						<g>
							<rect x="320.24" y="514.77" class="st18" width="28.59" height="326.42"/>
							<rect x="320.24" y="829.79" class="st19" width="28.59" height="11.4"/>
						</g>
						<path class="st20" d="M331.41,795.55c0,2.04-1.31,3.69-2.92,3.69l0,0c-1.61,0-2.92-1.65-2.92-3.69V532.46
							c0-2.04,1.31-3.69,2.92-3.69l0,0c1.61,0,2.92,1.65,2.92,3.69V795.55z"/>
					</g>
					<g>
						<rect x="319.04" y="508.21" class="st21" width="765.29" height="25.12"/>
						<g>
							<rect x="295.6" y="497.33" class="st22" width="810.5" height="16.75"/>
							<rect x="883.51" y="497.33" class="st23" width="222.59" height="16.75"/>
						</g>
					</g>
				</g>
				<path class="st24" d="M383.2,454.96c-0.49-0.06-0.97-0.12-1.46-0.18C382.52,454.83,383.01,454.89,383.2,454.96z"/>
				<path class="st25" d="M384.02,601.1c-17.1,2.48,5.53,10.39-9.29,15.78l75.54,11.62c38.58-2.34,149.05,4.5,166.78,0
					c6.34-1.61,39.24-0.82,41.9-4.56C638.41,590.55,409.66,597.38,384.02,601.1z"/>
				<g>
					<g>
						<g>
							<rect x="736.49" y="420" class="st16" width="35.9" height="74.93"/>
							<rect x="736.49" y="420" class="st26" width="16.6" height="74.93"/>
							<g>
								<path class="st27" d="M836.37,492.25c0,2.59-2.1,4.68-4.68,4.68H677.18c-2.59,0-4.68-2.09-4.68-4.68
									c0-1.29,0.52-2.46,1.37-3.3c0.84-0.85,2.02-1.37,3.31-1.37h154.51C834.28,487.57,836.37,489.67,836.37,492.25z"/>
								<path class="st16" d="M836.37,492.25c0,2.59-1.47,4.68-3.28,4.68h-55.8c-1.81,0-3.28-2.09-3.28-4.68
									c0-1.29,0.37-2.46,0.96-3.3c0.59-0.85,1.41-1.37,2.32-1.37h55.8C834.9,487.57,836.37,489.67,836.37,492.25z"/>
							</g>
							<g>
								<path class="st16" d="M887.3,289.15v141.92c0,8.18-5.49,14.98-12.75,16.42c-0.93,0.19-1.88,0.28-2.86,0.28H621.98
									c-0.98,0-1.93-0.09-2.86-0.28c-7.25-1.44-12.75-8.24-12.75-16.42V289.15c0-9.22,6.99-16.69,15.61-16.69h249.71
									C880.31,272.45,887.3,279.93,887.3,289.15z"/>
								<path class="st28" d="M868.7,295.06v130.1c0,8.45-6.32,15.31-14.12,15.31H628.73c-7.8,0-14.12-6.85-14.12-15.31v-130.1
									c0-8.45,6.32-15.31,14.12-15.31h225.85C862.38,279.76,868.7,286.61,868.7,295.06z"/>
								<path class="st20" d="M869.45,410.42v21.09c0,8.35-5.16,15.3-11.97,16.76H617.56c-6.81-1.47-11.97-8.41-11.97-16.76v-21.09
									H869.45z"/>
							</g>
							<path class="st26" d="M741.18,423.97c0,3.23-3.49,5.85-7.8,5.85c-4.31,0-7.8-2.62-7.8-5.85c0-3.23,3.49-5.85,7.8-5.85
								C737.68,418.12,741.18,420.74,741.18,423.97z"/>
						</g>
						<g>
							<g>
								<rect x="624.65" y="287.96" class="st29" width="12.92" height="1.38"/>
								<rect x="693.87" y="287.96" class="st29" width="17.54" height="1.38"/>
								<rect x="715.1" y="287.96" class="st29" width="57.23" height="1.38"/>
								<polygon class="st29" points="811.56,289.34 811.56,287.96 776.02,287.96 776.02,289.34 788.94,289.34 788.94,288.42 
									793.1,288.42 793.1,289.34 								"/>
								<rect x="822.17" y="287.96" class="st29" width="14.31" height="1.38"/>
								<rect x="624.65" y="294.42" class="st29" width="12.92" height="1.38"/>
								<rect x="757.56" y="294.42" class="st29" width="14.77" height="1.38"/>
								<rect x="776.02" y="294.42" class="st29" width="12.92" height="1.38"/>
								<rect x="822.17" y="294.42" class="st29" width="14.31" height="1.38"/>
								<rect x="793.1" y="294.42" class="st29" width="18.46" height="1.38"/>
								<rect x="693.87" y="294.42" class="st29" width="17.54" height="1.38"/>
								<rect x="715.1" y="294.42" class="st29" width="35.54" height="1.38"/>
								<rect x="624.65" y="300.88" class="st29" width="12.92" height="1.38"/>
								<rect x="702.64" y="300.88" class="st29" width="48" height="1.38"/>
								<rect x="757.56" y="300.88" class="st29" width="2.77" height="1.38"/>
								<rect x="770.95" y="300.88" class="st29" width="18" height="1.38"/>
								<rect x="793.1" y="300.88" class="st29" width="18.46" height="1.38"/>
								<rect x="822.17" y="300.88" class="st29" width="14.31" height="1.38"/>
								<rect x="624.65" y="307.34" class="st29" width="12.92" height="1.38"/>
								<rect x="702.64" y="307.34" class="st29" width="48" height="1.38"/>
								<rect x="757.56" y="307.34" class="st29" width="2.77" height="1.38"/>
								<rect x="770.95" y="307.34" class="st29" width="40.61" height="1.38"/>
								<rect x="829.1" y="307.34" class="st29" width="7.38" height="1.38"/>
								<rect x="822.17" y="307.34" class="st29" width="5.08" height="1.38"/>
								<rect x="624.65" y="313.8" class="st29" width="37.38" height="1.38"/>
								<rect x="702.64" y="313.8" class="st29" width="11.54" height="1.38"/>
								<rect x="770.95" y="313.8" class="st29" width="56.3" height="1.38"/>
								<rect x="829.1" y="313.8" class="st29" width="7.38" height="1.38"/>
								<rect x="729.87" y="313.8" class="st29" width="14.31" height="1.38"/>
								<polygon class="st29" points="692.03,321.19 662.03,321.19 662.03,320.27 624.65,320.27 624.65,321.65 692.03,321.65 
																	"/>
								<rect x="729.87" y="320.27" class="st29" width="14.31" height="1.38"/>
								<polygon class="st29" points="770.95,320.27 770.95,321.19 766.33,321.19 766.33,321.65 796.33,321.65 796.33,320.27 
																	"/>
								<rect x="797.71" y="320.27" class="st29" width="29.54" height="1.38"/>
								<rect x="829.1" y="320.27" class="st29" width="7.38" height="1.38"/>
								<rect x="702.64" y="320.27" class="st29" width="11.54" height="1.38"/>
								<polygon class="st30" points="624.65,326.73 624.65,328.11 626.49,328.11 626.49,327.65 630.64,327.65 630.64,328.11 
									714.18,328.11 714.18,326.73 								"/>
								<rect x="729.87" y="326.73" class="st30" width="14.31" height="1.38"/>
								<rect x="766.33" y="326.73" class="st30" width="30" height="1.38"/>
								<rect x="797.71" y="326.73" class="st30" width="29.54" height="1.38"/>
								<rect x="829.1" y="326.73" class="st30" width="7.38" height="1.38"/>
								<rect x="624.65" y="333.19" class="st30" width="1.85" height="1.38"/>
								<rect x="630.64" y="333.19" class="st30" width="83.53" height="1.38"/>
								<rect x="729.87" y="333.19" class="st30" width="14.31" height="1.38"/>
								<rect x="766.33" y="333.19" class="st30" width="30" height="1.38"/>
								<rect x="797.71" y="333.19" class="st30" width="29.54" height="1.38"/>
								<rect x="829.1" y="333.19" class="st30" width="7.38" height="1.38"/>
								<rect x="630.64" y="339.65" class="st30" width="83.53" height="1.38"/>
								<rect x="729.87" y="339.65" class="st30" width="12" height="1.38"/>
								<rect x="766.33" y="339.65" class="st30" width="24.92" height="1.38"/>
								<rect x="814.79" y="339.65" class="st30" width="21.69" height="1.38"/>
								<rect x="801.87" y="339.65" class="st30" width="4.61" height="1.38"/>
								<rect x="766.33" y="346.11" class="st30" width="24.92" height="1.38"/>
								<rect x="801.87" y="346.11" class="st30" width="4.61" height="1.38"/>
								<rect x="814.79" y="346.11" class="st30" width="5.54" height="1.38"/>
								<rect x="822.63" y="346.11" class="st30" width="13.85" height="1.38"/>
								<rect x="729.87" y="346.11" class="st30" width="12" height="1.38"/>
								<rect x="630.64" y="346.11" class="st30" width="13.85" height="1.38"/>
								<rect x="644.95" y="346.11" class="st30" width="69.23" height="1.38"/>
								<rect x="729.87" y="352.57" class="st30" width="12" height="1.38"/>
								<rect x="766.33" y="352.57" class="st30" width="24.92" height="1.38"/>
								<rect x="801.87" y="352.57" class="st30" width="4.61" height="1.38"/>
								<rect x="814.79" y="352.57" class="st30" width="5.54" height="1.38"/>
								<rect x="822.63" y="352.57" class="st30" width="13.85" height="1.38"/>
								<rect x="644.95" y="352.57" class="st30" width="69.23" height="1.38"/>
								<rect x="630.64" y="352.57" class="st30" width="13.85" height="1.38"/>
								<polygon class="st30" points="630.64,359.03 630.64,359.96 626.49,359.96 626.49,359.03 626.03,359.03 626.03,360.42 
									644.49,360.42 644.49,359.03 								"/>
								<rect x="644.95" y="359.03" class="st30" width="96.92" height="1.38"/>
								<rect x="766.33" y="359.03" class="st30" width="13.85" height="1.38"/>
								<rect x="781.56" y="359.03" class="st30" width="38.77" height="1.38"/>
								<rect x="822.63" y="359.03" class="st30" width="13.85" height="1.38"/>
								<rect x="674.03" y="365.49" class="st30" width="67.84" height="1.38"/>
								<rect x="626.03" y="365.49" class="st30" width="18.46" height="1.38"/>
								<rect x="644.95" y="365.49" class="st30" width="23.08" height="1.38"/>
								<rect x="781.56" y="365.49" class="st30" width="38.77" height="1.38"/>
								<rect x="753.87" y="365.49" class="st30" width="26.31" height="1.38"/>
								<rect x="822.63" y="365.49" class="st30" width="13.85" height="1.38"/>
								<rect x="626.03" y="371.96" class="st30" width="8.77" height="1.38"/>
								<rect x="637.11" y="371.96" class="st30" width="7.38" height="1.38"/>
								<rect x="644.95" y="371.96" class="st30" width="23.08" height="1.38"/>
								<rect x="674.03" y="371.96" class="st30" width="67.84" height="1.38"/>
								<rect x="753.87" y="371.96" class="st30" width="26.31" height="1.38"/>
								<rect x="781.56" y="371.96" class="st30" width="38.77" height="1.38"/>
								<rect x="822.63" y="371.96" class="st30" width="13.85" height="1.38"/>
								<rect x="693.41" y="378.42" class="st30" width="72.46" height="1.38"/>
								<rect x="626.03" y="378.42" class="st30" width="8.77" height="1.38"/>
								<rect x="637.11" y="378.42" class="st30" width="10.15" height="1.38"/>
								<rect x="651.87" y="378.42" class="st30" width="16.15" height="1.38"/>
								<rect x="674.03" y="378.42" class="st30" width="16.15" height="1.38"/>
								<rect x="768.64" y="378.42" class="st30" width="11.54" height="1.38"/>
								<rect x="781.56" y="378.42" class="st30" width="54.92" height="1.38"/>
								<rect x="768.64" y="384.88" class="st30" width="11.54" height="1.38"/>
								<rect x="624.65" y="384.88" class="st30" width="10.15" height="1.38"/>
								<rect x="651.87" y="384.88" class="st30" width="16.15" height="1.38"/>
								<rect x="637.11" y="384.88" class="st30" width="10.15" height="1.38"/>
								<rect x="674.03" y="384.88" class="st30" width="16.15" height="1.38"/>
								<rect x="693.41" y="384.88" class="st30" width="72.46" height="1.38"/>
								<rect x="781.56" y="384.88" class="st30" width="54.92" height="1.38"/>
								<rect x="624.65" y="391.34" class="st30" width="10.15" height="1.38"/>
								<rect x="651.87" y="391.34" class="st30" width="13.85" height="1.38"/>
								<rect x="674.49" y="391.34" class="st30" width="15.69" height="1.38"/>
								<rect x="637.11" y="391.34" class="st30" width="10.15" height="1.38"/>
								<rect x="693.41" y="391.34" class="st30" width="19.85" height="1.38"/>
								<rect x="716.02" y="391.34" class="st30" width="18.46" height="1.38"/>
								<rect x="738.64" y="391.34" class="st30" width="27.23" height="1.38"/>
								<rect x="768.64" y="391.34" class="st30" width="67.84" height="1.38"/>
								<rect x="624.65" y="397.8" class="st30" width="22.61" height="1.38"/>
								<rect x="651.87" y="397.8" class="st30" width="13.85" height="1.38"/>
								<rect x="674.49" y="397.8" class="st30" width="38.77" height="1.38"/>
								<rect x="716.02" y="397.8" class="st30" width="18.46" height="1.38"/>
								<rect x="738.64" y="397.8" class="st30" width="27.23" height="1.38"/>
								<rect x="768.64" y="397.8" class="st30" width="67.84" height="1.38"/>
							</g>
						</g>
						<g>
							<g>
								<rect x="632.61" y="297.93" class="st31" width="123.08" height="92.75"/>
								<rect x="632.59" y="297.93" class="st17" width="123.12" height="6.94"/>
							</g>
							<g>
								<path class="st32" d="M749.24,301.31c0,1.33-1.08,2.41-2.41,2.41c-1.33,0-2.41-1.08-2.41-2.41c0-1.33,1.08-2.41,2.41-2.41
									C748.16,298.9,749.24,299.98,749.24,301.31z"/>
								<path class="st33" d="M737.66,301.31c0,1.33-1.08,2.41-2.41,2.41c-1.33,0-2.41-1.08-2.41-2.41c0-1.33,1.08-2.41,2.41-2.41
									C736.58,298.9,737.66,299.98,737.66,301.31z"/>
								<path class="st12" d="M726.72,301.31c0,1.33-1.08,2.41-2.41,2.41c-1.33,0-2.41-1.08-2.41-2.41c0-1.33,1.08-2.41,2.41-2.41
									C725.64,298.9,726.72,299.98,726.72,301.31z"/>
							</g>
							<g>
								<rect x="640.97" y="313.9" class="st33" width="4.83" height="1.38"/>
								<rect x="662" y="313.9" class="st33" width="67.57" height="1.38"/>
								<rect x="640.97" y="319.42" class="st33" width="4.83" height="1.38"/>
								<polygon class="st33" points="662,319.42 662,320.8 713.36,320.8 713.36,319.76 724.4,319.76 724.4,320.8 725.09,320.8 
									725.09,319.42 								"/>
								<rect x="640.97" y="324.94" class="st33" width="4.83" height="1.38"/>
								<rect x="662" y="324.94" class="st33" width="45.16" height="1.38"/>
								<polygon class="st33" points="725.09,325.62 725.09,324.94 724.4,324.94 724.4,326.32 729.57,326.32 729.57,325.62 								
									"/>
								<polygon class="st33" points="662,330.45 662,331.14 645.79,331.14 645.79,330.45 640.97,330.45 640.97,331.83 
									679.92,331.83 679.92,330.45 								"/>
								<rect x="698.54" y="330.45" class="st33" width="8.62" height="1.38"/>
								<rect x="723.36" y="330.45" class="st33" width="6.55" height="1.38"/>
								<rect x="640.97" y="335.97" class="st33" width="21.03" height="1.38"/>
								<rect x="698.54" y="335.97" class="st33" width="34.13" height="1.38"/>
								<rect x="640.97" y="341.48" class="st33" width="21.03" height="1.38"/>
								<polygon class="st33" points="732.67,341.48 698.54,341.48 698.54,342.52 679.92,342.52 679.92,341.48 678.54,341.48 
									678.54,342.86 694.06,342.86 694.06,342.86 705.78,342.86 705.78,342.86 707.5,342.86 707.5,341.83 714.74,341.83 
									714.74,342.86 718.88,342.86 718.88,342.17 732.67,342.17 								"/>
								<polygon class="st33" points="694.06,347 678.54,347 678.54,347.35 662,347.35 662,347 640.97,347 640.97,348.38 
									694.06,348.38 								"/>
								<rect x="705.78" y="347" class="st33" width="1.72" height="1.38"/>
								<rect x="714.74" y="347" class="st33" width="4.14" height="1.38"/>
								<rect x="642" y="365.62" class="st32" width="21.03" height="1.38"/>
								<rect x="681.3" y="365.62" class="st32" width="4.14" height="1.38"/>
								<rect x="696.13" y="365.62" class="st32" width="18.27" height="1.38"/>
								<rect x="641.66" y="372.17" class="st32" width="21.37" height="1.38"/>
								<rect x="681.3" y="372.17" class="st32" width="4.14" height="1.38"/>
								<rect x="696.13" y="372.17" class="st32" width="2.41" height="1.38"/>
								<rect x="707.85" y="372.17" class="st32" width="6.55" height="1.38"/>
								<rect x="641.31" y="378.72" class="st32" width="21.72" height="1.38"/>
								<rect x="681.3" y="378.72" class="st32" width="31.37" height="1.38"/>
							</g>
						</g>
						<g>
							<g>
								<rect x="764.9" y="333.89" class="st31" width="90.83" height="68.44"/>
								<rect x="764.89" y="333.89" class="st17" width="90.86" height="5.12"/>
							</g>
							<g>
								<path class="st32" d="M850.97,336.38c0,0.98-0.8,1.78-1.78,1.78c-0.98,0-1.78-0.8-1.78-1.78c0-0.98,0.8-1.78,1.78-1.78
									C850.18,334.6,850.97,335.4,850.97,336.38z"/>
								<path class="st33" d="M842.42,336.38c0,0.98-0.8,1.78-1.78,1.78c-0.98,0-1.78-0.8-1.78-1.78c0-0.98,0.8-1.78,1.78-1.78
									C841.63,334.6,842.42,335.4,842.42,336.38z"/>
								<path class="st12" d="M834.35,336.38c0,0.98-0.8,1.78-1.78,1.78c-0.98,0-1.78-0.8-1.78-1.78c0-0.98,0.8-1.78,1.78-1.78
									C833.55,334.6,834.35,335.4,834.35,336.38z"/>
							</g>
							<g>
								<rect x="770.51" y="347.91" class="st12" width="12.66" height="0.49"/>
								<rect x="793.15" y="347.91" class="st12" width="16.55" height="0.49"/>
								<rect x="784.88" y="347.91" class="st12" width="6.82" height="0.49"/>
								<rect x="812.14" y="347.91" class="st12" width="3.9" height="0.49"/>
								<rect x="816.77" y="347.91" class="st12" width="20.45" height="0.49"/>
								<rect x="837.95" y="347.91" class="st12" width="4.14" height="0.49"/>
								<rect x="842.58" y="347.91" class="st12" width="6.82" height="0.49"/>
								<rect x="770.51" y="349.13" class="st12" width="12.66" height="0.73"/>
								<rect x="784.88" y="349.13" class="st12" width="6.82" height="0.73"/>
								<rect x="793.15" y="349.13" class="st12" width="16.55" height="0.73"/>
								<rect x="812.14" y="349.13" class="st12" width="3.9" height="0.73"/>
								<polygon class="st12" points="816.77,349.13 816.77,349.86 828.7,349.86 828.7,349.37 829.43,349.37 829.43,349.86 
									837.22,349.86 837.22,349.13 								"/>
								<rect x="837.95" y="349.13" class="st12" width="4.14" height="0.73"/>
								<rect x="842.58" y="349.13" class="st12" width="6.82" height="0.73"/>
								<rect x="770.51" y="355.46" class="st12" width="21.42" height="0.49"/>
								<rect x="792.42" y="355.46" class="st12" width="8.52" height="0.49"/>
								<rect x="802.89" y="355.46" class="st12" width="6.82" height="0.49"/>
								<rect x="812.14" y="355.46" class="st12" width="16.56" height="0.49"/>
								<rect x="838.44" y="355.46" class="st12" width="10.96" height="0.49"/>
								<rect x="829.43" y="355.46" class="st12" width="7.79" height="0.49"/>
								<rect x="792.42" y="356.68" class="st12" width="8.52" height="1.95"/>
								<rect x="770.51" y="356.68" class="st12" width="21.42" height="1.95"/>
								<rect x="802.89" y="356.68" class="st12" width="6.82" height="1.95"/>
								<polygon class="st12" points="837.22,356.68 829.43,356.68 829.43,358.38 828.7,358.38 828.7,356.68 812.14,356.68 
									812.14,358.62 837.22,358.62 								"/>
								<polygon class="st12" points="838.44,356.68 838.44,358.62 842.33,358.62 842.33,357.41 845.5,357.41 845.5,358.62 
									849.39,358.62 849.39,356.68 								"/>
								<polygon class="st12" points="782.2,366.03 770.76,366.03 770.76,368.29 777.57,368.29 777.57,366.17 782.2,366.17 								
									"/>
								<rect x="825.53" y="366.03" class="st12" width="3.41" height="0.14"/>
								<polygon class="st12" points="838.68,366.03 838.68,366.17 843.06,366.17 843.06,368.29 849.64,368.29 849.64,366.03 
																	"/>
								<rect x="832.59" y="366.03" class="st12" width="4.87" height="0.14"/>
								<rect x="792.67" y="379.81" class="st12" width="8.52" height="0.87"/>
								<rect x="793.88" y="375.18" class="st12" width="7.3" height="1.46"/>
								<polygon class="st12" points="770.76,375.18 770.76,376.64 779.03,376.64 779.03,375.42 779.28,375.42 779.28,376.64 
									780.98,376.64 780.98,375.18 								"/>
								<rect x="781.22" y="375.18" class="st12" width="9.25" height="1.46"/>
								<rect x="781.22" y="379.81" class="st12" width="10.96" height="0.87"/>
								<rect x="770.76" y="379.81" class="st12" width="8.28" height="0.87"/>
								<rect x="779.28" y="379.81" class="st12" width="1.7" height="0.87"/>
								<rect x="803.13" y="375.18" class="st12" width="5.6" height="1.46"/>
								<rect x="803.13" y="379.81" class="st12" width="5.6" height="0.87"/>
								<rect x="832.59" y="375.18" class="st12" width="4.87" height="1.46"/>
								<rect x="812.39" y="375.18" class="st12" width="16.56" height="1.46"/>
								<rect x="811.55" y="388.68" class="st12" width="16.56" height="1.46"/>
								<rect x="831.43" y="388.68" class="st12" width="16.56" height="1.46"/>
								<rect x="812.39" y="379.81" class="st12" width="16.8" height="0.87"/>
								<rect x="832.59" y="379.81" class="st12" width="4.87" height="0.87"/>
								<rect x="838.68" y="375.18" class="st12" width="3.9" height="1.46"/>
								<rect x="845.74" y="375.18" class="st12" width="3.9" height="1.46"/>
								<rect x="838.68" y="379.81" class="st12" width="3.9" height="0.87"/>
								<rect x="845.74" y="379.81" class="st12" width="3.9" height="0.87"/>
								<polygon class="st12" points="801,383.62 801,383.75 805.38,383.75 805.38,385.87 811.96,385.87 811.96,383.62 								"/>
								<rect x="794.92" y="392.76" class="st12" width="4.87" height="1.46"/>
								<rect x="774.71" y="392.76" class="st12" width="16.56" height="1.46"/>
								<rect x="774.71" y="397.39" class="st12" width="16.8" height="0.87"/>
								<rect x="794.92" y="397.39" class="st12" width="4.87" height="0.87"/>
								<rect x="801" y="392.76" class="st12" width="3.9" height="1.46"/>
								<rect x="808.06" y="392.76" class="st12" width="3.9" height="1.46"/>
								<rect x="801" y="397.39" class="st12" width="3.9" height="0.87"/>
								<rect x="808.06" y="397.39" class="st12" width="3.9" height="0.87"/>
								<rect x="770.51" y="344.26" class="st12" width="12.66" height="1.7"/>
								<rect x="784.88" y="344.26" class="st12" width="6.82" height="1.7"/>
								<rect x="793.15" y="344.26" class="st12" width="16.55" height="1.7"/>
								<polygon class="st12" points="837.22,345.96 837.22,344.26 812.14,344.26 812.14,345.96 816.04,345.96 816.04,344.75 
									816.77,344.75 816.77,345.96 								"/>
								<polygon class="st12" points="837.95,344.26 837.95,345.96 842.09,345.96 842.09,345.48 842.58,345.48 842.58,345.96 
									849.39,345.96 849.39,344.26 								"/>
							</g>
						</g>
					</g>
					<g>
						<g>
							
								<rect x="706.71" y="490.35" transform="matrix(1 -5.768446e-03 5.768446e-03 1 -2.8323 4.2829)" class="st34" width="68.66" height="5.58"/>
							<polygon class="st35" points="573.57,491.32 569.42,496.93 724.31,496.03 724.28,490.45 							"/>
						</g>
						<polygon class="st16" points="589.36,486.49 573.57,491.32 775.35,490.15 771.14,485.43 						"/>
					</g>
					<g>
						<path class="st36" d="M862.07,496.93H811.5c4.99-7.55,13.24-14.82,28.75-13.88c1.91,0.12,3.72,0.39,5.42,0.81
							C854.23,485.92,860.08,491.41,862.07,496.93z"/>
						<path class="st33" d="M862.07,496.93h-34.41c3.68-5.57,9.15-11,18.01-13.08C854.23,485.92,860.08,491.41,862.07,496.93z"/>
					</g>
				</g>
				<g>
					<path class="st16" d="M952.55,486.28c0.41,5.94-4.07,10.75-10.01,10.75h-33.69c-5.94,0-10.15-4.81-9.41-10.75l8.51-68.09
						c0.74-5.94,4.64-10.75,8.7-10.75h23.06c4.06,0,7.69,4.81,8.1,10.75L952.55,486.28z"/>
					<path class="st17" d="M943.38,484.4c0.33,4.64-3.25,8.4-7.99,8.4h-26.9c-4.74,0-8.11-3.76-7.51-8.4l6.8-53.22
						c0.59-4.64,3.7-8.4,6.95-8.4h18.42c3.25,0,6.14,3.76,6.47,8.4L943.38,484.4z"/>
					<g>
						<path class="st16" d="M922.85,488.21c-9.78,0-17.75-7.96-17.75-17.74c0-9.78,7.96-17.75,17.75-17.75
							c9.78,0,17.74,7.96,17.74,17.75C940.6,480.25,932.64,488.21,922.85,488.21z M922.85,454.04c-9.06,0-16.42,7.37-16.42,16.42
							c0,9.06,7.37,16.42,16.42,16.42c9.06,0,16.42-7.37,16.42-16.42C939.28,461.41,931.91,454.04,922.85,454.04z"/>
						<path class="st16" d="M922.85,456.85c-7.51,0-13.61,6.11-13.61,13.61c0,7.51,6.11,13.61,13.61,13.61
							c7.51,0,13.61-6.11,13.61-13.61C936.47,462.95,930.36,456.85,922.85,456.85z"/>
					</g>
					<g>
						<path class="st16" d="M922.85,448.54c-5.53,0-10.03-4.5-10.03-10.03c0-5.53,4.5-10.03,10.03-10.03
							c5.53,0,10.03,4.5,10.03,10.03C932.89,444.04,928.38,448.54,922.85,448.54z M922.85,429.21c-5.12,0-9.29,4.17-9.29,9.29
							c0,5.12,4.17,9.29,9.29,9.29c5.12,0,9.29-4.17,9.29-9.29C932.14,433.38,927.97,429.21,922.85,429.21z"/>
						<path class="st16" d="M922.85,430.8c-4.25,0-7.7,3.45-7.7,7.7c0,4.25,3.45,7.7,7.7,7.7c4.25,0,7.7-3.45,7.7-7.7
							C930.55,434.26,927.1,430.8,922.85,430.8z"/>
					</g>
				</g>
				<g>
					<g>
						<g>
							<g>
								<path class="st37" d="M583.86,826.52c-8.4-4.75-15.46-18.44-18.83-26.85c-5.43-13.56-3.72,10.11-14.18,7.49
									c-4.29-1.07-7.12,5.3-8.12,9c-2.39,8.82-0.57,23.39,0.95,29.14c12.47,1.63,18.91,1.54,31.49,1.71
									c7.24,0.1,22.89,0.19,27.25-6.39C599.02,831.44,591.25,830.7,583.86,826.52z"/>
								<path class="st38" d="M546.38,758.51c-0.21,10.43-1.88,20.25-0.93,30.98c0.8,9.1-1.55,23.35,5.75,30.01
									c14.36-7.13,14.24-39.68,18.22-53.66L546.38,758.51z"/>
								<path class="st37" d="M537.42,790.66l28.8,1.82c0.87-3.66,1.73-7.34,2.57-11.04c11.89-51.87,30.37-108.59,33.83-163.22
									l-51.15-11.25c-9.13,1.08-14.37,32.85-15.94,43.9c-3.46,24.45-0.38,49.47,0.61,73.98
									C536.98,745.81,538.28,768.5,537.42,790.66z"/>
							</g>
							<g>
								<path class="st37" d="M708.82,826.52c-8.4-4.75-15.46-18.44-18.83-26.85c-5.43-13.56-3.72,10.11-14.18,7.49
									c-4.29-1.07-7.12,5.3-8.12,9c-2.39,8.82-0.57,23.39,0.95,29.14c12.47,1.63,18.91,1.54,31.49,1.71
									c7.24,0.1,22.89,0.19,27.25-6.39C723.98,831.44,716.21,830.7,708.82,826.52z"/>
								<path class="st38" d="M671.34,758.51c-0.21,10.43-1.88,20.25-0.93,30.98c0.81,9.1-1.55,23.35,5.75,30.01
									c14.36-7.13,14.25-39.68,18.22-53.66L671.34,758.51z"/>
								<path class="st37" d="M727.58,618.22c0,0.07-0.01,0.15-0.02,0.22c-2.41,37.69-11.96,76.37-21.54,113.77
									c-4.3,16.74-8.59,33.22-12.27,49.23c-0.85,3.7-1.7,7.37-2.57,11.04l-28.8-1.82c0.86-22.15-0.44-44.84-1.28-65.79
									c-0.98-24.51-4.07-49.53-0.61-73.99c0.34-2.39,0.85-5.76,1.54-9.59c1.72-9.57,4.54-21.96,8.49-28.94
									c1.75-3.09,3.71-5.11,5.91-5.37L727.58,618.22z"/>
							</g>
						</g>
						<path class="st37" d="M727.57,618.44c-0.69,2.1-1.9,4.27-3.68,6.5c-6.98,8.7-20.47,12.85-35.44,14.78
							c-8.63,1.11-17.75,1.49-26.41,1.57c-10.24,0.09-19.84-0.23-27.19-0.23c-20.87,0-41.52,0.05-62.09-1.67
							c-11.16-0.94-25.29,0.01-37.38-1.6c-3.98-0.53-7.74-1.34-11.1-2.58l5.73-66.98c38.95-3.42,58.03-8.41,95.98-0.42
							C638.99,570.53,737.59,587.93,727.57,618.44z"/>
						<path class="st39" d="M706.02,732.21c-4.3,16.74-8.59,33.22-12.27,49.23c-0.85,3.7-1.7,7.37-2.57,11.04l-28.8-1.82
							c0.86-22.15-0.44-44.84-1.28-65.79c-0.98-24.51-4.07-49.53-0.61-73.99c0.34-2.39,0.85-5.76,1.54-9.59
							c-10.24,0.09-19.84-0.23-27.19-0.23c-20.87,0-41.52,0.05-62.09-1.67c-11.16-0.94-25.29,0.01-37.38-1.6l3.36-31.91
							c3.91,5.72,30.81,4.68,39.21,5.02c18.55,0.75,36.82,0.31,55.27,1.26c11.15,0.57,24.29,0.11,37.31,0.2
							c14.53,0.1,28.9,0.89,40.19,4.55c-9.17,1.24-16.56,4.35-24.9,8.13c5.06,2.97,13.64,4.47,18.62,6.95
							c-6.68-0.77-11.91,2.42-16,7.76c-10.5,13.71-13.45,41.61-14.05,52.81c-0.67,12.35,0.42,29.39,11.37,37.43
							C692.86,735.18,699.44,734.36,706.02,732.21z"/>
					</g>
					<g>
						<g>
							<g>
								<path class="st40" d="M556.45,286.05h-5.79c-6.21,0-11.27-4.97-11.27-11.08v-3.37c0-6.11,5.05-11.08,11.27-11.08h5.79
									c6.21,0,11.26,4.97,11.26,11.08v3.37C567.71,281.07,562.66,286.05,556.45,286.05z M550.65,262.43
									c-5.06,0-9.17,4.11-9.17,9.16v3.37c0,5.05,4.11,9.16,9.17,9.16h5.79c5.06,0,9.17-4.11,9.17-9.16v-3.37
									c0-5.05-4.11-9.16-9.17-9.16H550.65z"/>
								<g>
									<g>
										<path class="st41" d="M551.2,280.19c-0.31,2.57-1.11,11.79-0.97,16.95c0.18,6.43,0.97,13.1,2.23,19.3
											c-7.08,2.6-17.78-6.23-22.38-10.9c-6.97-7.08-10.88-15.67-12.04-25.47L551.2,280.19z"/>
										<path class="st42" d="M546.19,285.27c-4.16-0.07-7.08,6.75-7.44,10.23c-0.68,6.48,5.54,12.55,4.23,18.61
											c-4.79-1.84-10.54-8.08-14.21-11.74c-3.74-3.73-10.54-10.89-10.29-16.55L546.19,285.27z"/>
									</g>
									<path class="st38" d="M555.86,293.88c-0.33,11.36-2.59,22.59-2.53,24.57c0,0,0,0,0,0.01c0.01,0.2,0.01,0.4,0,0.59
										c-0.01,0.87-0.14,1.73-0.52,2.52c-0.38,0.77-1,1.47-1.99,1.99c-4.07,2.15-9.37,2.35-14.39,1.39
										c-0.84-0.16-1.67-0.35-2.49-0.57c-0.56-0.15-1.11-0.31-1.65-0.49c-1.87-0.61-3.63-1.35-5.19-2.19
										c-2.32-1.25-4.2-2.7-5.36-4.2c-0.46-0.6-0.8-1.21-1.01-1.81c-0.01,0.27-0.03,0.57-0.04,0.88
										c-0.01,0.15-0.02,0.31-0.02,0.47c0,0.06-0.01,0.13-0.01,0.2c-0.01,0.19-0.02,0.39-0.03,0.59c0,0.07,0,0.13-0.01,0.2v0.05
										c-0.01,0.17-0.01,0.34-0.02,0.52c-0.01,0.23-0.02,0.47-0.03,0.71c-0.01,0.25-0.02,0.5-0.03,0.77
										c-0.03,0.71-0.05,1.47-0.08,2.26c-0.04,1.21-0.08,2.48-0.11,3.78c-0.01,0.39-0.02,0.78-0.03,1.18
										c-0.06,2.28-0.12,4.64-0.17,6.94c0,0.2-0.01,0.41-0.01,0.61c-0.04,1.64-0.07,3.25-0.1,4.76c-0.04,2.05-0.07,3.94-0.09,5.55
										c-0.05,3.17-0.07,5.25-0.05,5.34c-0.04,0.01-0.08,0.02-0.12,0.03c-3.18,0.85-8.11,1.24-13.79,1.22
										c-10.33-0.03-23.13-1.43-32.26-3.87l0,0c-3.64-0.97-6.7-2.11-8.79-3.4c-0.74-0.45-1.35-0.92-1.83-1.41
										c-0.02-0.02-0.03-0.03-0.05-0.05c-0.08-0.08-0.16-0.17-0.23-0.26c1.05-1.88,1.8-6.09,2.33-11.39
										c0.06-0.59,0.12-1.18,0.17-1.8c0.08-0.92,0.15-1.86,0.23-2.83c0.23-3.24,0.41-6.72,0.55-10.21
										c0.26-6.9,0.37-13.89,0.44-19.34v0c0.04-2.88,0.07-5.32,0.11-7.09c0.03-1.36,0.04-2.54,0.03-3.5
										c-0.19-11.77-1.56-23.5-2.39-35.3c-1.26-18.09,72.95-14.3,72.95-14.3c5.6,4.3,7.47,10.63,9.01,17.6
										c0.03,0.12,0.05,0.23,0.08,0.35c0.47,2.14,0.91,4.35,1.42,6.57c0.06,0.26,0.12,0.51,0.18,0.77
										c0.05,0.21,0.1,0.43,0.15,0.64c0,0.01,0,0.02,0.01,0.03c0.02,0.08,0.04,0.16,0.06,0.25c0.2,0.78,0.4,1.57,0.62,2.35
										c0.1,0.34,0.2,0.67,0.3,1.01c0.44,1.42,0.93,2.84,1.51,4.25c0.23,0.23,0.45,0.47,0.66,0.72c0.4,0.47,0.77,0.99,1.1,1.54
										c1.34,2.19,2.23,4.96,2.78,8.06C555.83,285.05,555.99,289.47,555.86,293.88z"/>
								</g>
								<path class="st43" d="M552.8,321.57c-0.38,0.78-1,1.47-1.99,1.99c-10.14,5.36-27.86-1.42-30.09-7.87
									c-0.44,8.52-1.24,40.82-0.88,42.47c-12.12,3.33-50.65-7.9-57.01-15.42c3.71-6.63,3.57-41.95,3.83-52.66l51.07-11.96
									c0.75,1.42-0.1,4.47-0.16,6.29c-0.08,2.31-0.04,4.75,0.11,7.06c0.28,4.4,1.51,8.97,3.41,13.04
									c3.52,7.53,10.29,15.61,18.8,17.58C543.45,322.93,548.56,323.02,552.8,321.57z"/>
								<path class="st38" d="M560.46,287.11c-0.34-0.61-2.54-1.65-3.19-2.37c-1.38-1.54-2.09-3.66-3.03-5.47
									c-1.29-2.47-3.1-7.43-4.94-8.56l0.77,24.34C552.88,294.07,564.32,294.06,560.46,287.11z"/>
								<g>
									<g>
										<g>
											<path class="st44" d="M552.36,273.08c-0.12,0.11-0.24,0.2-0.36,0.28c-0.34,0.22-0.71,0.35-1.1,0.39
												c-0.84,0.07-1.65-0.33-2.34-1.06c-0.95-1-1.65-2.64-1.81-4.54c-0.06-0.75-0.04-1.47,0.07-2.14
												c0.19-1.27,0.64-2.35,1.28-3.09c0,0.01,0,0.02,0.01,0.03c0.02,0.08,0.04,0.16,0.06,0.25c0.2,0.78,0.4,1.57,0.62,2.35
												c0.1,0.34,0.2,0.67,0.3,1.01c0.44,1.42,0.93,2.84,1.51,4.25c0.23,0.23,0.45,0.47,0.66,0.72
												C551.66,272.01,552.03,272.52,552.36,273.08z"/>
										</g>
										<path class="st44" d="M548.79,265.56c-0.68,0.1-1.35,0.26-1.98,0.45c-1.68,0.51-3.02,1.31-3.37,2.26
											c0.44-2.72,2.13-5.01,4.5-5.99c0.05,0.21,0.1,0.43,0.15,0.64c0,0.01,0,0.02,0.01,0.03c0.02,0.08,0.04,0.16,0.06,0.25
											C548.36,263.99,548.57,264.77,548.79,265.56z"/>
									</g>
									<path class="st45" d="M550.45,256.1c-1.69-1.71-6.18-2.2-8.98-0.33c-2.98,1.62-6.74,5.88-6.21,7.24
										c0.25,1.11,7.92-0.4,9.79-0.88C546.88,261.53,555.01,260.92,550.45,256.1z"/>
								</g>
								<path class="st45" d="M463.18,230.34c6.6-19.43,26-17.19,48.28-16.42c23.8,0.82,41.26,9.8,41.26,9.8
									c-0.34,15.5,1.12,16.46-5.05,30.56c-3.87,0.52-16.27,21.46-31.39,10.46c5.5,9.47,6.22,33.63,1.19,44.33
									c-4.61,9.78-8.09,3.29-15.96,8.98c-1.53-2.8-3.75-5.58-5.98-7.5c0.86,5.54,2.71,11.36,1.78,17.15
									c-6.53,3.57-12.55,3.87-20.13,4.23c-10.98,0.51-12.38-0.6-15.59-10.51c-4.94-15.2-4.08-23.21-11-37.68
									C445.34,268.69,435.22,244.64,463.18,230.34z"/>
								<polygon class="st40" points="513.88,278.74 566.04,269.71 566.66,272.85 515.94,281.87 								"/>
								<g>
									<path class="st38" d="M506.19,277.87c6.69-7.68,14.51,2,17.62,5.83c0,0-0.07,13.34-3.67,16.42
										c-4.35,3.73-10.67,0.17-13.45-3.61C503,291.49,501.18,283.63,506.19,277.87z"/>
									<path class="st43" d="M506.46,282.13c2.1-5.82,7.66-3.02,10.12,0.9c-8.59-3.26-9.51,6.66-7.37,12.27
										C507.11,291.35,504.79,286.78,506.46,282.13z"/>
								</g>
							</g>
							<path class="st32" d="M586.53,570.59c-0.15,0.08-0.3,0.16-0.45,0.24c-10.2,5.35-29.47,10.71-41.5,13.3
								c-3.04,0.65-5.62,1.13-7.47,1.38c-20.46,2.79-40.25,2.48-60.19-1.96c-5.26-19.22-17.42-36.95-21.89-56.57
								c-5.15-22.67-13.72-55.49-14.81-79.02c-0.81-17.42-11.91-62.74-10.86-80.29c0.77-12.89,18.23,1.25,22.46-10.24l0.13-10.51
								c-0.8-6.33-1.93-13-0.88-19.52c19.26-0.75,45.8-3.25,62.82,4.79c15.28,7.22,33.74,9.71,47.28,21.92
								c7.79,7.01,10.27,66.24,14.23,119.8c3.18,42.86,7.3,82.08,15.86,88.04C594.87,564.44,592.25,567.51,586.53,570.59z"/>
						</g>
						<path class="st46" d="M586.08,570.83c-10.2,5.35-29.47,10.71-41.5,13.3c-3.44-26.76,6.24-66.27,1.21-85.61
							c-5.22-20.06-6.87-37.44-10.05-57.77c-1.38-8.86,0.2-27.35-0.25-36.27c-0.32-6.38,1.31-14.21-0.84-20.05l21.77,53.59
							c1.72,13.76,12.08,24.2,18.99,35.89c3.18,42.86,7.3,82.08,15.86,88.04C592.29,562.65,594.76,566.33,586.08,570.83z"/>
						<g>
							<g>
								
									<ellipse transform="matrix(0.1602 -0.9871 0.9871 0.1602 112.3244 777.4968)" class="st37" cx="513.08" cy="322.74" rx="23.44" ry="23.44"/>
								
									<ellipse transform="matrix(0.0453 -0.999 0.999 0.0453 171.0223 824.431)" class="st47" cx="516.85" cy="322.74" rx="17.16" ry="17.16"/>
								
									<ellipse transform="matrix(0.7071 -0.7071 0.7071 0.7071 -75.6635 462.8073)" class="st37" cx="520.83" cy="322.74" rx="11.51" ry="11.51"/>
							</g>
							<path class="st48" d="M521.66,318.27c-19,6.05-49.45,1.63-67.64-5.7c0.08,3.68-0.81,11.68-0.6,15.33
								c9.3,4.09,19.01,4.53,29.31,5.02c10.68,0.51,30.5-2.28,40.19-6.7L521.66,318.27z"/>
							<path class="st48" d="M527.11,322.04c0,2.54-2.06,4.61-4.6,4.61c-2.54,0-4.61-2.06-4.61-4.61c0-2.54,2.06-4.6,4.61-4.6
								C525.04,317.43,527.11,319.5,527.11,322.04z"/>
						</g>
						<g>
							<path class="st32" d="M611.02,494.07c-0.34,0.28-0.68,0.56-1.03,0.83c-5.4,4.13-12.43,6.29-26.04-4.28
								c-1.53-1.18-3.14-2.53-4.83-4.05c-10.82-9.68-19.83-29.23-28.15-40.61c-0.95-1.31-1.91-2.65-2.86-4.05
								c-13.67-20-26.58-48.59-26.23-72.64c0.15-10.14,2.47-17.82,12.25-20.6c6.58-1.87,18.95-9.25,34.9,16.09
								c0,0,26.11,54.6,38.24,93.11C612.92,475.85,615.53,490.32,611.02,494.07z"/>
							<g>
								<path class="st38" d="M702.85,469.3c-9.68-3.22-21.44,3-30.26,6.88l8.94,9.18c6.83,1.31,9.65,1.35,16.51,1.16
									c18.75-0.53,20.61,2.42,26.92,0.73C723.58,478.91,712.4,472.49,702.85,469.3z"/>
								<path class="st32" d="M688.85,487.37c-0.8,1.68-19.09,6.31-37.08,10.28c-14.96,3.29-29.72,6.13-34.04,6.43
									c-13.14,0.9-26.02-3.94-33.79-13.46c-4.03-4.94-6.69-11.12-7.3-18.42c-0.05-0.51-0.08-1.02-0.1-1.54l16.68-12.61
									c4.76-1.03,9.31-0.94,14.03-0.18c16.71,2.69,35.5,13.83,72.74,14.14C679.99,472.01,690.73,483.44,688.85,487.37z"/>
							</g>
						</g>
						<g>
							<g>
								<path class="st46" d="M651.77,497.65c-14.96,3.29-29.72,6.13-34.04,6.43c-13.14,0.9-26.02-3.94-33.79-13.46
									c-1.53-1.18-3.14-2.53-4.83-4.05c-10.82-9.68-19.83-29.23-28.15-40.61c-0.95-1.31-1.91-2.65-2.86-4.05
									c-6.62-19.43-14.27-30.89-13.62-50.77c6.91,32.02,35.89,72.39,42.16,81.06c5.07,7.02,10.83,13.57,17.93,19.31
									c-0.87-4.69-0.66-10-0.3-14.73c3.8,9.42,9.05,14.99,15.7,18.13c7.28,3.43,16.24,3.96,26.81,3.43
									C641.64,498.09,646.71,497.9,651.77,497.65z"/>
							</g>
						</g>
					</g>
					<g>
						<g>
							<g>
								<g>
									<path class="st49" d="M428.48,711.46c0,2.63-1.48,4.76-3.3,4.76h-22.21c-1.82,0-3.3-2.13-3.3-4.76l0,0
										c0-2.63,1.48-4.76,3.3-4.76h22.21C427,706.71,428.48,708.84,428.48,711.46L428.48,711.46z"/>
								</g>
								<g>
									<path class="st49" d="M418.74,713.51c7.83-1.25,15.83-0.67,23.66-1.97c7.93-1.32,14.45-5.68,20.98-10.11
										c6.44-4.37,12.81-8.89,19.97-12.02c7.72-3.38,16.64-3.2,24.86-4.34c2.41-0.34,1.38-3.99-1.01-3.66
										c-8.24,1.14-16.9,1.08-24.71,4.28c-7.18,2.94-13.57,7.38-19.94,11.73c-6.64,4.53-13.1,9-21.15,10.46
										c-7.8,1.41-15.83,0.72-23.66,1.97C415.33,710.24,416.35,713.9,418.74,713.51L418.74,713.51z"/>
								</g>
							</g>
						</g>
						<g>
							<path class="st50" d="M666.64,648.14v5.84c0,6.28-5.09,11.37-11.37,11.37H395.99c-6.28,0-11.37-5.09-11.37-11.37v-5.84
								c0-6.28,5.09-11.37,11.37-11.37h259.27C661.55,636.76,666.64,641.85,666.64,648.14z"/>
							<path class="st49" d="M678.5,636.76v1.04c0,7.08-4.89,13.15-11.86,15.72v0.45c0,6.28-5.09,11.37-11.37,11.37H495.49
								c-5.99,0-10.9-4.63-11.34-10.51c-0.02-0.28-0.03-0.57-0.03-0.86v-5.84c0-6.28,5.09-11.37,11.37-11.37H678.5z"/>
						</g>
						<g>
							<polygon class="st49" points="543.46,696.54 514.66,696.54 425.51,651.06 631.11,651.06 							"/>
							<polygon class="st50" points="532.3,696.54 514.35,696.54 425.2,651.06 489.34,651.06 							"/>
						</g>
						<rect x="521.19" y="698.82" class="st49" width="13.9" height="48.52"/>
						<g>
							<rect x="521.88" y="720.04" class="st51" width="9.74" height="72.66"/>
							<rect x="517.02" y="720.04" class="st49" width="22.24" height="72.66"/>
							<rect x="517.02" y="720.04" class="st52" width="9.74" height="72.66"/>
						</g>
						<g>
							<path class="st50" d="M546.33,701.21c0,2.58-1.65,4.68-3.69,4.68h-28.98c-2.03,0-3.68-2.09-3.68-4.68
								c0-1.29,0.41-2.46,1.08-3.31c0.67-0.85,1.59-1.37,2.61-1.37h28.98C544.68,696.54,546.33,698.63,546.33,701.21z"/>
							<path class="st49" d="M546.33,701.21c0,2.58-1.65,4.68-3.69,4.68h-10.8c-2.04,0-3.69-2.09-3.69-4.68
								c0-1.29,0.41-2.46,1.08-3.31c0.67-0.85,1.59-1.37,2.61-1.37h10.8C544.68,696.54,546.33,698.63,546.33,701.21z"/>
						</g>
						<g>
							<g>
								<g>
									<path class="st49" d="M535.7,787.87v40.64c0,2.21-1.03,4.17-2.63,5.44c-0.56,0.45-1.19,0.81-1.87,1.07
										c-0.76,0.29-1.59,0.44-2.45,0.44c-0.86,0-1.69-0.16-2.45-0.44c-0.68-0.26-1.31-0.62-1.87-1.07
										c-0.21-0.16-0.41-0.34-0.59-0.53c-1.26-1.26-2.04-3-2.04-4.92v-40.64c0-2.2,1.03-4.17,2.63-5.44
										c0.56-0.45,1.19-0.81,1.87-1.06c0.76-0.29,1.59-0.44,2.45-0.44c0.86,0,1.69,0.16,2.45,0.44c0.68,0.26,1.31,0.62,1.87,1.06
										c0.21,0.16,0.41,0.34,0.59,0.53C534.93,784.22,535.7,785.95,535.7,787.87z"/>
								</g>
								<path class="st50" d="M529.75,813.34c0,0.55-0.45,1-1,1l0,0c-0.55,0-1-0.45-1-1v-23.78c0-0.55,0.45-1,1-1l0,0
									c0.55,0,1,0.45,1,1V813.34z"/>
							</g>
							<g>
								<g>
									<rect x="522.87" y="812.39" class="st49" width="9.42" height="13.66"/>
									<rect x="522.87" y="812.39" class="st52" width="3.54" height="13.66"/>
								</g>
								<g>
									<g>
										<path class="st53" d="M523.96,835c0,7.58-6.15,13.73-13.73,13.73c-7.58,0-13.73-6.14-13.73-13.73
											c0-7.58,6.15-13.73,13.73-13.73C517.81,821.27,523.96,827.41,523.96,835z"/>
										<path class="st54" d="M517.09,835c0,3.79-3.07,6.86-6.86,6.86c-3.79,0-6.86-3.07-6.86-6.86c0-3.79,3.07-6.86,6.86-6.86
											C514.02,828.13,517.09,831.2,517.09,835z"/>
									</g>
									<g>
										<g>
											<path class="st52" d="M534,830.41h-39.77c0.43-7.06,9.17-12.7,19.88-12.7c1.5,0,2.95,0.11,4.36,0.32
												C527.11,819.31,533.62,824.34,534,830.41z"/>
											<path class="st49" d="M534,830.41h-31.06c0.38-6.08,6.9-11.1,15.53-12.38C527.11,819.31,533.62,824.34,534,830.41z"/>
										</g>
									</g>
								</g>
							</g>
						</g>
						<g>
							<g>
								<g>
									<rect x="401" y="810.61" class="st49" width="9.42" height="13.66"/>
									<rect x="401" y="810.61" class="st55" width="3.54" height="13.66"/>
								</g>
								<g>
									<g>
										<path class="st53" d="M402.09,833.21c0,7.58-6.15,13.73-13.73,13.73s-13.73-6.15-13.73-13.73
											c0-7.58,6.15-13.73,13.73-13.73S402.09,825.63,402.09,833.21z"/>
										<path class="st54" d="M395.23,833.21c0,3.79-3.07,6.87-6.86,6.87s-6.86-3.07-6.86-6.87c0-3.79,3.07-6.86,6.86-6.86
											S395.23,829.42,395.23,833.21z"/>
									</g>
									<g>
										<g>
											<path class="st52" d="M412.13,828.63h-39.77c0.44-7.06,9.17-12.7,19.88-12.7c1.5,0,2.95,0.11,4.36,0.32
												C405.24,817.53,411.75,822.56,412.13,828.63z"/>
											<path class="st49" d="M412.13,828.63h-31.06c0.38-6.08,6.9-11.1,15.53-12.38C405.24,817.53,411.75,822.56,412.13,828.63z
												"/>
										</g>
									</g>
								</g>
							</g>
							<path class="st49" d="M517.08,771.06c-7.7,1.36-110.69,23.55-124.08,37.27c-3.6,3.69,5.35,5.76,9.35,5.01l114.73-21.59
								V771.06z"/>
							<path class="st52" d="M517.08,771.06l0,10.74c-17.19,2.81-108.19,18.07-123.13,27.73c-0.9,0.58-1.01,1.42-0.85,2.04
								c-1.08-0.84-1.36-1.94-0.1-3.23C406.39,794.61,509.38,772.42,517.08,771.06z"/>
							<path class="st52" d="M517,771.06v2.27c-7.43,1.32-105.93,22.17-124.76,35.96c0.13-0.3,0.36-0.62,0.68-0.95
								C406.31,794.61,509.3,772.42,517,771.06z"/>
						</g>
						<g>
							<g>
								<g>
									<rect x="645.88" y="810.61" class="st49" width="9.42" height="13.66"/>
									<rect x="651.76" y="810.61" class="st55" width="3.54" height="13.66"/>
								</g>
								<g>
									<g>
										<path class="st53" d="M654.21,833.21c0,7.58,6.15,13.73,13.73,13.73c7.58,0,13.73-6.15,13.73-13.73
											c0-7.58-6.15-13.73-13.73-13.73C660.36,819.49,654.21,825.63,654.21,833.21z"/>
										<path class="st54" d="M661.08,833.21c0,3.79,3.07,6.87,6.86,6.87c3.79,0,6.86-3.07,6.86-6.87c0-3.79-3.07-6.86-6.86-6.86
											C664.15,826.35,661.08,829.42,661.08,833.21z"/>
									</g>
									<g>
										<g>
											<path class="st52" d="M644.17,828.63h39.77c-0.43-7.06-9.17-12.7-19.88-12.7c-1.5,0-2.95,0.11-4.36,0.32
												C651.07,817.53,644.55,822.56,644.17,828.63z"/>
											<path class="st49" d="M644.17,828.63h31.06c-0.38-6.08-6.9-11.1-15.53-12.38C651.07,817.53,644.55,822.56,644.17,828.63z
												"/>
										</g>
									</g>
								</g>
							</g>
							<path class="st49" d="M539.22,771.06c7.7,1.36,110.69,23.55,124.08,37.27c3.6,3.69-5.35,5.76-9.35,5.01l-114.73-21.59V771.06
								z"/>
							<path class="st52" d="M539.22,771.06l0,10.74c17.19,2.81,108.19,18.07,123.13,27.73c0.9,0.58,1.01,1.42,0.85,2.04
								c1.08-0.84,1.36-1.94,0.1-3.23C649.91,794.61,546.92,772.42,539.22,771.06z"/>
							<path class="st52" d="M539.3,771.06v2.27c7.43,1.32,105.93,22.17,124.76,35.96c-0.13-0.3-0.36-0.62-0.68-0.95
								C649.99,794.61,547,772.42,539.3,771.06z"/>
						</g>
						<g>
							<path class="st50" d="M638.28,515.74c-4.2-2.57-13.04-3.03-17.82-3.03h-84.67c2.85,7.43,5.16,15.11,7.57,22.74h79.19
								c0.03,0.01,0.07,0.02,0.1,0.03c0,0,0,0,0,0c0.02,0.01,0.03,0.02,0.04,0.03c0,0,0.01,0,0.01,0.01
								c0.24,0.19,0.48,0.39,0.67,0.58c0,0,0.01,0.01,0.01,0.01c0.02,0.03,0.03,0.05,0.05,0.08c0.17,0.27,0.33,0.55,0.49,0.83
								c0,0,0,0,0,0.01c0.18,0.56,0.34,1.13,0.47,1.71c0,0,0,0,0,0c0.1,1.82,0.03,3.67,0.03,5.49v74.64
								c0,6.2,5.17,11.37,11.37,11.37c0.92,0,1.82-0.11,2.68-0.33c4.94-1.22,8.7-5.76,8.7-11.04v-78.79
								C647.16,530.32,646.7,520.89,638.28,515.74z"/>
							<path class="st50" d="M622.81,535.37c-0.08-0.1-0.12-0.16-0.14-0.17c0.01,0,0.07,0.08,0.15,0.18
								C622.82,535.37,622.82,535.37,622.81,535.37z"/>
							<path class="st50" d="M622.88,535.46C622.88,535.46,622.87,535.46,622.88,535.46c0-0.01,0.01-0.01,0.01,0
								c0,0,0.01,0.01,0.01,0.01C622.9,535.47,622.88,535.46,622.88,535.46z"/>
							<path class="st50" d="M623.11,535.74c-0.05-0.06-0.1-0.12-0.14-0.17c0,0,0.01,0,0.02,0.01
								C623.04,535.63,623.08,535.69,623.11,535.74C623.12,535.74,623.11,535.74,623.11,535.74z"/>
							<path class="st49" d="M631.15,524.08c-4.2-2.57-14.26-3.03-19.06-3.03h-73.33c1.6,4.77,3.08,9.6,4.59,14.41h79.19
								c0.03,0.01,0.07,0.02,0.1,0.03c0,0,0,0,0,0c0.02,0.01,0.03,0.02,0.04,0.03c0,0,0.01,0,0.01,0.01
								c0.24,0.19,0.48,0.39,0.67,0.58c0,0,0.01,0.01,0.01,0.01c0.02,0.03,0.03,0.05,0.05,0.08c0.17,0.27,0.33,0.55,0.49,0.83
								c0,0,0,0,0,0.01c0.18,0.56,0.34,1.13,0.47,1.71c0,0,0,0,0,0c0.1,1.82,0.03,3.67,0.03,5.49v74.64
								c0,6.2,5.17,11.37,11.37,11.37c0.92,0,1.82-0.11,2.68-0.33c0.22-0.87,0.34-1.77,0.34-2.7v-78.79
								C638.8,538.66,639.58,529.23,631.15,524.08z"/>
							<path class="st56" d="M627.36,519.43c9.59,0.14,13.95,8.91,13.74,17.53c-0.05,1.83,2.8,1.83,2.84,0
								c0.13-5.15-0.99-10.53-4.3-14.6c-3.06-3.76-7.47-5.7-12.28-5.77C625.52,516.56,625.53,519.41,627.36,519.43L627.36,519.43z"
								/>
						</g>
						<g>
							<g>
								<path class="st57" d="M374.94,337.8c0.02,8.75,7.13,15.83,15.88,15.81l70.89-0.16c8.75-0.02,15.83-7.13,15.81-15.88
									l-0.06-25.36c-0.02-8.75-7.13-15.83-15.88-15.81l-70.89,0.16c-8.75,0.02-15.83,7.13-15.81,15.88L374.94,337.8z"/>
								<path class="st58" d="M374.98,338.98c0.62,8.2,7.48,14.65,15.83,14.63l70.89-0.16c8.75-0.02,15.83-7.13,15.81-15.88
									l-0.06-25.36c-0.02-8.41-6.59-15.28-14.87-15.78c0.03,0.39,0.05,0.78,0.05,1.18l0.06,25.36
									c0.02,8.75-7.06,15.86-15.81,15.88l-70.89,0.16C375.65,339.01,375.32,339,374.98,338.98z"/>
							</g>
							<path class="st57" d="M563.63,582.76c-0.49,11.02,0.27,25.54-2.79,37.1c-0.4,1.5-0.86,2.96-1.4,4.35
								c-0.03,0.09-0.07,0.18-0.1,0.28c-0.23,0.58-5.59,31.13-5.85,31.68c-25.34,0.31-59.22,0.92-90.03,1.18
								c-17.39,0.15-33.79,0.18-47.13,0c-19.18-0.26-32.02-0.99-32.33-2.52c-7.93,0-14.76-7.02-15.49-16.2l-1.05-13.07l-0.32-4.04
								l-20.31-253.1c-0.07-0.87-0.08-1.73-0.04-2.57c0.41-8.47,6.2-15.41,13.83-16.02c1.77-0.75,8.69-1.84,17.22-2.94
								c3.83-0.49,7.99-0.98,12.15-1.45c10.1-1.13,57.43-2.29,85.68-0.45c0,0,0,0,0.01,0c5.03,0.32,9.45,0.74,12.96,1.28
								c24.1,3.65,35.28,17.46,39.42,41.84c0.14,0.84,0.28,1.67,0.43,2.52c1.25,7.29,2.52,14.58,3.81,21.88
								c0.55,3.11,1.1,6.22,1.66,9.34c2.42,13.5,4.92,27.02,7.49,40.59c0.41,2.19,0.83,4.39,1.24,6.59c0.17,0.9,0.35,1.8,0.54,2.7
								c5.16,24.83,16.22,49.38,18.8,74.46c0.46,4.56,0.89,9.16,1.21,13.79C563.74,567.55,563.97,575.18,563.63,582.76z"/>
							<path class="st58" d="M520.83,605.93c-2.29,5.66-6.23,10.24-11.37,13.94c-37.14,26.66-137.57,6.75-141.99,5.7l-0.32-4.04
								l-20.31-253.1c-0.07-0.87-0.08-1.73-0.04-2.57c2.77-0.76,5.56-1.6,8.35-2.45c6.79-2.07,13.53-4.19,19.7-5.31
								c1.38-0.26,2.74-0.46,4.06-0.6c21.31-2.28,41.86-0.18,62.81,1.04c18.29,1.07,40.01,0.84,55.02,12.81
								c15.27,12.17,15.31,33.94,17.76,51.26c5.63,39.74,10.16,81.81,10.11,123.03C524.58,564,527.58,589.29,520.83,605.93z"/>
						</g>
						<path class="st57" d="M679.33,636.91v3.4c0,7.08-7.22,13.15-17.5,15.72c-3.38,0.84-7.08,1.31-10.97,1.31H416.33
							c-19.18-0.26-32.02-0.99-32.33-2.52c-7.93,0-14.76-7.02-15.49-16.2l-1.05-13.07l-0.32-4.04c3.72-1.07,7.89-1.67,12.29-1.67
							h271.43C666.59,619.87,679.33,627.5,679.33,636.91z"/>
					</g>
				</g>
			</g>
			<g>
				<path class="st59" d="M797.73,463.7c0,0.95-0.02,1.89-0.07,2.83c0,0.03,0,0.06,0,0.09c0,0.01,0,0.03,0,0.04
					c0,0.02,0,0.03,0,0.05c-0.01,0.23-0.02,0.46-0.04,0.69c-0.35,5.34-1.46,10.34-3.15,14.76c-1.24,3.24-2.8,6.16-4.61,8.67
					c-1.89,2.62-4.05,4.79-6.41,6.4H763.5c-2.18-1.49-4.19-3.46-5.97-5.81c-5.1-6.74-8.33-16.66-8.33-27.72
					c0-2.94,0.23-5.79,0.66-8.53h47.21c0.34,2.14,0.55,4.36,0.63,6.63C797.72,462.43,797.73,463.06,797.73,463.7z"/>
				<path class="st59" d="M797.63,466.37c-0.08-0.31,0.04,0.53,0.03,0.22c-0.01-0.32-0.1,0.52-0.03,0.2
					c0.11-0.53-0.19,0.3,0.03-0.09c0.05-0.08,0.1-0.16,0.15-0.24c0.21-0.31-0.29,0.35-0.04,0.06c0.18-0.21,0.38-0.39,0.58-0.58
					c0.09-0.09,0.19-0.17,0.29-0.25c0.35-0.29-0.33,0.24,0.05-0.04c0.23-0.17,0.47-0.34,0.72-0.5c0.58-0.38,1.19-0.72,1.8-1.04
					c0.61-0.32,1.23-0.61,1.87-0.88c-0.36,0.16,0.17-0.07,0.2-0.08c0.16-0.07,0.32-0.13,0.49-0.19c0.38-0.14,0.76-0.28,1.14-0.41
					c0.63-0.21,1.26-0.39,1.9-0.55c0.3-0.07,0.6-0.14,0.9-0.19c0.14-0.03,0.29-0.05,0.43-0.07c0.35-0.06-0.36,0.04,0.18-0.02
					c1.39-0.15,2.33,0.04,3.64,0.52c0.57,0.21-0.3-0.15,0.24,0.1c0.17,0.08,0.33,0.16,0.49,0.25c0.31,0.17,0.61,0.36,0.9,0.57
					c-0.31-0.22,0.13,0.12,0.16,0.14c0.13,0.11,0.25,0.23,0.37,0.35c0.12,0.12,0.23,0.25,0.35,0.37c0.14,0.17,0.15,0.17,0.03,0.01
					c0.07,0.09,0.13,0.18,0.2,0.27c0.19,0.28,0.36,0.57,0.51,0.87c0.02,0.04,0.24,0.55,0.09,0.17c0.06,0.16,0.12,0.32,0.17,0.48
					c0.11,0.33,0.18,0.67,0.25,1.01c0.11,0.57-0.03-0.37,0.03,0.2c0.02,0.24,0.03,0.48,0.04,0.72c0.03,1.34-0.46,3.01-1.03,4.2
					c-1.34,2.84-3.61,4.62-6.44,6.09c-1.46,0.76-2.7,1.22-4.36,1.77c-1.57,0.51-3.17,0.92-4.78,1.3c-2.24,0.52-4.6,0.84-6.74,1.69
					c-1.31,0.52-2.46,1.2-3.28,2.39c-0.9,1.3-0.68,2.95-0.1,4.31c1.21,2.8,4.15,3.48,6.79,2.33c1.03-0.45,2-1.47,2.22-2.59
					c0.33-1.64-0.59-2.91-1.89-3.81c-0.84-0.58-2.08-0.16-2.57,0.67c-0.55,0.93-0.17,1.99,0.67,2.57c0.46,0.31-0.24-0.23,0.12,0.1
					c0.34,0.31-0.19-0.32,0.04,0.02c0.22,0.34-0.12-0.41-0.02-0.05c-0.13-0.44-0.02-0.32-0.03-0.1c0.02-0.57-0.09,0.01,0.13-0.48
					c-0.05,0.12-0.27,0.41,0.07-0.03c-0.07,0.09-0.15,0.16-0.23,0.24c-0.22,0.21,0.35-0.22-0.09,0.05c-0.1,0.07-0.22,0.12-0.33,0.17
					c0.46-0.22,0.08-0.05-0.03-0.01c-0.12,0.04-0.25,0.07-0.38,0.09c-0.44,0.09,0.43-0.03-0.02-0.01c-0.13,0.01-0.26,0-0.39,0
					c-0.45-0.02,0.42,0.08-0.01-0.01c-0.11-0.02-0.51-0.18-0.04,0.02c-0.11-0.05-0.56-0.37-0.17-0.06c-0.11-0.09-0.2-0.19-0.29-0.29
					c0.3,0.34,0.02-0.02-0.03-0.11c-0.08-0.15-0.16-0.3-0.23-0.45c0.18,0.39,0-0.04-0.02-0.11c-0.03-0.11-0.11-0.57-0.04-0.02
					c-0.02-0.12-0.02-0.24-0.01-0.36c0-0.41-0.09,0.45-0.01,0.06c0.11-0.49-0.14,0.22,0-0.05c0.05-0.1,0.11-0.19,0.17-0.27
					c-0.3,0.44-0.1,0.14-0.01,0.04c0.08-0.08,0.17-0.16,0.26-0.23c-0.4,0.34-0.09,0.08,0.01,0.01c0.21-0.14,0.44-0.26,0.67-0.37
					c0.09-0.04,0.51-0.22,0.05-0.03c0.17-0.07,0.35-0.13,0.52-0.19c2.24-0.79,4.67-1.12,6.97-1.68c3.32-0.8,6.61-1.85,9.63-3.45
					c2.99-1.58,5.66-3.89,7.26-6.9c1.6-3.01,2.35-6.76,1.03-10.01c-1.31-3.23-4.17-5.39-7.56-6.04c-2.79-0.54-5.54,0.11-8.17,1.07
					c-2.2,0.8-4.4,1.8-6.29,3.18c-1.57,1.15-3.31,2.8-2.78,4.95C794.59,469.71,798.21,468.72,797.63,466.37L797.63,466.37z"/>
				<path class="st60" d="M783.61,459.88c0,17.87-9.55,32.35-21.32,32.35c-1.64,0-3.23-0.28-4.76-0.81
					c-5.1-6.74-8.33-16.66-8.33-27.72c0-2.94,0.23-5.79,0.66-8.53h33.53C783.54,456.71,783.61,458.28,783.61,459.88z"/>
				<path class="st61" d="M753.35,461.8c-1.13,4.08-0.27,8.62,0.86,12.6c0.6,2.11,1.37,4.15,2.25,6.16
					c0.67,1.53,1.43,3.05,2.41,4.41c0.7,0.97,1.91,1.44,3.02,0.79c0.97-0.57,1.49-2.04,0.79-3.02c-0.91-1.26-1.61-2.66-2.26-4.07
					c-0.08-0.17-0.15-0.34-0.23-0.51c-0.05-0.12-0.1-0.23-0.15-0.35c0.1,0.23,0.1,0.23,0,0c-0.2-0.49-0.39-0.98-0.57-1.47
					c-0.36-0.96-0.67-1.93-0.96-2.92c-0.29-0.99-0.54-2-0.75-3.02c-0.1-0.47-0.18-0.93-0.26-1.4c-0.01-0.09-0.13-0.92-0.06-0.4
					c-0.03-0.26-0.06-0.52-0.09-0.78c-0.09-0.93-0.12-1.87-0.08-2.8c0.01-0.18,0.02-0.35,0.03-0.53c0.01-0.12,0.11-0.89,0.02-0.26
					c0.06-0.43,0.16-0.85,0.27-1.27c0.32-1.16-0.38-2.4-1.54-2.71C754.9,459.95,753.67,460.65,753.35,461.8L753.35,461.8z"/>
			</g>
		</g>
	</g>
</g>
</svg>
